<?xml version="1.0" encoding="UTF-8"?>
<svg width="308px" height="1208px" viewBox="0 0 308 1208" version="1.1" xmlns="http://www.w3.org/2000/svg" xmlns:xlink="http://www.w3.org/1999/xlink">
    <title>C0EDA3E5-3DFC-48DF-B868-274D4F52143B</title>
    <defs>
        <path d="M7.65163636,16.1590909 C8.26527273,16.1590909 8.80883333,16.0340909 9.28231818,15.7840909 C9.75580303,15.5340909 10.1270152,15.15625 10.3959545,14.6505682 C10.6648939,14.1448864 10.8012576,13.5132576 10.8050455,12.7556818 L10.8050455,12.7556818 L10.8050455,4.36363636 L9.74254545,4.36363636 L9.74254545,12.7556818 C9.74254545,13.3162879 9.6535303,13.7774621 9.4755,14.1392045 C9.2974697,14.500947 9.05220455,14.7689394 8.73970455,14.9431818 C8.42720455,15.1174242 8.06451515,15.2045455 7.65163636,15.2045455 C7.25390909,15.2045455 6.89690152,15.1306818 6.58061364,14.9829545 C6.26432576,14.8352273 6.01527273,14.6297348 5.83345455,14.3664773 C5.65163636,14.1032197 5.56072727,13.7992424 5.56072727,13.4545455 L5.56072727,13.4545455 L4.51527273,13.4545455 C4.51527273,14 4.65068939,14.4753788 4.92152273,14.8806818 C5.19235606,15.2859848 5.56451515,15.6003788 6.038,15.8238636 C6.51148485,16.0473485 7.04936364,16.1590909 7.65163636,16.1590909 Z M13.9111135,16 L15.157,12.495 L20.039,12.495 L21.2861135,16 L22.3997498,16 L18.1667953,4.36363636 L17.0304316,4.36363636 L12.7974771,16 L13.9111135,16 Z M19.699,11.54 L15.497,11.54 L17.5588407,5.74431818 L17.6383862,5.74431818 L19.699,11.54 Z M25.4565874,16 L25.4565874,6.25568182 L25.5474965,6.25568182 L32.4224965,16 L33.4565874,16 L33.4565874,4.36363636 L32.4111329,4.36363636 L32.4111329,14.1193182 L32.3202238,14.1193182 L25.4224965,4.36363636 L24.3940874,4.36363636 L24.3940874,16 L25.4565874,16 Z" id="path-1"></path>
        <path d="M8.38095455,116 L8.38095455,110.653409 L13.523,110.653409 L13.523,109.698864 L8.38095455,109.698864 L8.38095455,105.318182 L14.0514091,105.318182 L14.0514091,104.363636 L7.31845455,104.363636 L7.31845455,116 L8.38095455,116 Z M23.5608793,116 L23.5608793,115.045455 L17.7597429,115.045455 L17.7597429,110.653409 L23.0892883,110.653409 L23.0892883,109.698864 L17.7597429,109.698864 L17.7597429,105.318182 L23.4472429,105.318182 L23.4472429,104.363636 L16.6972429,104.363636 L16.6972429,116 L23.5608793,116 Z M30.3317172,116 C31.1650505,116 31.8516036,115.868371 32.3913763,115.605114 C32.931149,115.341856 33.3317172,114.980114 33.5930808,114.519886 C33.8544445,114.059659 33.9851263,113.535985 33.9851263,112.948864 C33.9851263,112.357955 33.8714899,111.850379 33.6442172,111.426136 C33.4169445,111.001894 33.1271718,110.671402 32.774899,110.434659 C32.4226263,110.197917 32.0589899,110.066288 31.6839899,110.039773 L31.6839899,110.039773 L31.6839899,109.948864 C32.0286869,109.854167 32.3411869,109.700758 32.6214899,109.488636 C32.901793,109.276515 33.1233839,108.998106 33.2862627,108.653409 C33.4491414,108.308712 33.5305808,107.893939 33.5305808,107.409091 C33.5305808,106.825758 33.4036869,106.304924 33.149899,105.846591 C32.8961111,105.388258 32.5163763,105.026515 32.0106945,104.761364 C31.5050127,104.496212 30.8733839,104.363636 30.1158081,104.363636 L30.1158081,104.363636 L26.1896718,104.363636 L26.1896718,116 L30.3317172,116 Z M30.212399,109.619318 L27.2521718,109.619318 L27.2521718,105.318182 L30.1158081,105.318182 C30.9112627,105.318182 31.5097475,105.512311 31.9112627,105.900568 C32.3127778,106.288826 32.5135354,106.791667 32.5135354,107.409091 C32.5135354,107.837121 32.4169445,108.217803 32.2237627,108.551136 C32.0305808,108.88447 31.7616414,109.145833 31.4169445,109.335227 C31.0722475,109.524621 30.6707324,109.619318 30.212399,109.619318 L30.212399,109.619318 Z M30.3317172,115.045455 L27.2521718,115.045455 L27.2521718,110.5625 L30.3771718,110.5625 C30.899899,110.5625 31.3553914,110.668561 31.743649,110.880682 C32.1319066,111.092803 32.433043,111.379735 32.6470581,111.741477 C32.8610733,112.10322 32.9680808,112.505682 32.9680808,112.948864 C32.9680808,113.551136 32.7531187,114.051136 32.3231945,114.448864 C31.8932702,114.846591 31.2294445,115.045455 30.3317172,115.045455 L30.3317172,115.045455 Z" id="path-2"></path>
        <path d="M2.85645455,212 L2.85645455,202.607955 L2.94736364,202.607955 L6.8735,212 L7.83940909,212 L11.7655455,202.607955 L11.8564545,202.607955 L11.8564545,212 L12.8564545,212 L12.8564545,200.363636 L11.6291818,200.363636 L7.40759091,210.5 L7.30531818,210.5 L3.08372727,200.363636 L1.85645455,200.363636 L1.85645455,212 L2.85645455,212 Z M15.9644174,212 L17.211,208.495 L22.092,208.495 L23.3394174,212 L24.4530538,212 L20.2200992,200.363636 L19.0837356,200.363636 L14.8507811,212 L15.9644174,212 Z M21.752,207.54 L17.551,207.54 L19.6121447,201.744318 L19.6916901,201.744318 L21.752,207.54 Z M27.5098914,212 L27.509,207.296 L30.2201187,207.295455 C30.3110277,207.295455 30.4003001,207.293654 30.4879357,207.290053 L30.665,207.279 L33.2144368,212 L34.4417096,212 L31.756,207.076 L31.8886091,207.030794 C31.9566039,207.005588 32.0229619,206.978582 32.0876832,206.949776 L32.2769368,206.857955 C32.8299671,206.566288 33.2475808,206.160985 33.5297777,205.642045 C33.8119747,205.123106 33.9530732,204.524621 33.9530732,203.846591 C33.9530732,203.168561 33.8119747,202.567235 33.5297777,202.042614 C33.2475808,201.517992 32.8290202,201.107008 32.2740959,200.809659 C31.7191717,200.512311 31.0288308,200.363636 30.2030732,200.363636 L30.2030732,200.363636 L26.4473914,200.363636 L26.4473914,212 L27.5098914,212 Z M27.5098914,201.318182 L30.1746641,201.318182 C30.7883005,201.318182 31.2968232,201.422348 31.7002323,201.630682 C32.1036414,201.839015 32.4057247,202.133523 32.6064823,202.514205 C32.8072399,202.894886 32.9076187,203.339015 32.9076187,203.846591 C32.9076187,204.354167 32.8081868,204.793561 32.6093232,205.164773 C32.4104596,205.535985 32.1093232,205.82197 31.7059141,206.022727 C31.302505,206.223485 30.7977702,206.323864 30.1917096,206.323864 L30.1917096,206.323864 L27.509,206.324 L27.5098914,201.318182 Z" id="path-3"></path>
        <path d="M2.59045455,404 L2.59045455,394.607955 L2.68136364,394.607955 L6.6075,404 L7.57340909,404 L11.4995455,394.607955 L11.5904545,394.607955 L11.5904545,404 L12.5904545,404 L12.5904545,392.363636 L11.3631818,392.363636 L7.14159091,402.5 L7.03931818,402.5 L2.81772727,392.363636 L1.59045455,392.363636 L1.59045455,404 L2.59045455,404 Z M15.6984174,404 L16.945,400.495 L21.826,400.495 L23.0734174,404 L24.1870538,404 L19.9540992,392.363636 L18.8177356,392.363636 L14.5847811,404 L15.6984174,404 Z M21.486,399.54 L17.285,399.54 L19.3461447,393.744318 L19.4256901,393.744318 L21.486,399.54 Z M29.1643459,404 L29.1643459,398.960227 L33.3632096,392.363636 L32.1359368,392.363636 L28.6870732,397.886364 L28.5848005,397.886364 L25.1359368,392.363636 L23.9086641,392.363636 L28.1075277,398.960227 L28.1075277,404 L29.1643459,404 Z" id="path-4"></path>
        <path d="M8.57740909,16 L8.57740909,15.0454545 L3.03195455,15.0454545 L3.03195455,4.36363636 L1.96945455,4.36363636 L1.96945455,16 L8.57740909,16 Z M15.0205909,16.1590909 C16.0016515,16.1590909 16.8700227,15.9138258 17.6257045,15.4232955 C18.3813864,14.9327652 18.9751364,14.2395833 19.4069545,13.34375 C19.8387727,12.4479167 20.0546818,11.3939394 20.0546818,10.1818182 C20.0546818,8.96969697 19.8387727,7.9157197 19.4069545,7.01988636 C18.9751364,6.12405303 18.3813864,5.43087121 17.6257045,4.94034091 C16.8700227,4.44981061 16.0016515,4.20454545 15.0205909,4.20454545 C14.0433182,4.20454545 13.1758939,4.44981061 12.4183182,4.94034091 C11.6607424,5.43087121 11.0669924,6.12405303 10.6370682,7.01988636 C10.2071439,7.9157197 9.99218182,8.96969697 9.99218182,10.1818182 C9.99218182,11.3939394 10.2071439,12.4479167 10.6370682,13.34375 C11.0669924,14.2395833 11.6597955,14.9327652 12.4154773,15.4232955 C13.1711591,15.9138258 14.0395303,16.1590909 15.0205909,16.1590909 Z M15.0205909,15.1590909 C14.2554394,15.1590909 13.5717273,14.9611742 12.9694545,14.5653409 C12.3671818,14.1695076 11.891803,13.6003788 11.5433182,12.8579545 C11.1948333,12.1155303 11.0205909,11.2234848 11.0205909,10.1818182 C11.0205909,9.13636364 11.1957803,8.24242424 11.5461591,7.5 C11.8965379,6.75757576 12.3728636,6.18939394 12.9751364,5.79545455 C13.5774091,5.40151515 14.2592273,5.20454545 15.0205909,5.20454545 C15.7857424,5.20454545 16.4694545,5.40151515 17.0717273,5.79545455 C17.674,6.18939394 18.1493788,6.75852273 18.4978636,7.50284091 C18.8463485,8.24715909 19.020652,9.14015152 19.020652,10.1818182 C19.0243788,11.2234848 18.8520303,12.1164773 18.5035455,12.8607955 C18.1550606,13.6051136 17.6787348,14.1742424 17.0745682,14.5681818 C16.4704015,14.9621212 15.7857424,15.1590909 15.0205909,15.1590909 Z M27.1266561,16.1590909 C27.7478683,16.1590909 28.317944,16.0625 28.8368834,15.8693182 C29.3558228,15.6761364 29.8151031,15.407197 30.2147243,15.0625 C30.6143455,14.717803 30.943891,14.3153409 31.2033607,13.8551136 C31.4628304,13.3948864 31.6399137,12.8977273 31.7346107,12.3636364 L31.7346107,12.3636364 L30.6664289,12.3636364 C30.5868834,12.7613636 30.443891,13.1306818 30.2374516,13.4715909 C30.0310122,13.8125 29.7724895,14.1089015 29.4618834,14.3607955 C29.1512774,14.6126894 28.7990046,14.8087121 28.4050652,14.9488636 C28.0111258,15.0890152 27.5849895,15.1590909 27.1266561,15.1590909 C26.3918077,15.1590909 25.7223001,14.96875 25.1181334,14.5880682 C24.5139667,14.2073864 24.0310122,13.6477273 23.6692698,12.9090909 C23.3075274,12.1704545 23.1266561,11.2613636 23.1266561,10.1818182 C23.1266561,9.10984848 23.3075274,8.20359848 23.6692698,7.46306818 C24.0310122,6.72253788 24.5139667,6.16098485 25.1181334,5.77840909 C25.7223001,5.39583333 26.3918077,5.20454545 27.1266561,5.20454545 C27.5849895,5.20454545 28.0111258,5.27462121 28.4050652,5.41477273 C28.7990046,5.55492424 29.1512774,5.75189394 29.4618834,6.00568182 C29.7724895,6.2594697 30.0310122,6.55587121 30.2374516,6.89488636 C30.443891,7.23390152 30.5868834,7.60227273 30.6664289,8 L30.6664289,8 L31.7346107,8 C31.6399137,7.46212121 31.4628304,6.96401515 31.2033607,6.50568182 C30.943891,6.04734848 30.6143455,5.64488636 30.2147243,5.29829545 C29.8151031,4.95170455 29.3558228,4.68276515 28.8368834,4.49147727 C28.317944,4.30018939 27.7478683,4.20454545 27.1266561,4.20454545 C26.1493834,4.20454545 25.2819592,4.44981061 24.5243834,4.94034091 C23.7668077,5.43087121 23.1730577,6.12310606 22.7431334,7.01704545 C22.3132092,7.91098485 22.098247,8.96590909 22.098247,10.1818182 C22.098247,11.3977273 22.3132092,12.4526515 22.7431334,13.3465909 C23.1730577,14.2405303 23.7668077,14.9327652 24.5243834,15.4232955 C25.2819592,15.9138258 26.1493834,16.1590909 27.1266561,16.1590909 Z M35.2971121,16 L35.2971121,12.2215909 L36.8482484,10.4829545 L41.1607484,16 L42.456203,16 L37.5073393,9.74431818 L42.4789303,4.36363636 L41.081203,4.36363636 L35.3993848,10.6306818 L35.2971121,10.6306818 L35.2971121,4.36363636 L34.2346121,4.36363636 L34.2346121,16 L35.2971121,16 Z M47.8861388,16 C49.0528054,16 50.0461767,15.7670455 50.8662524,15.3011364 C51.6863282,14.8352273 52.3113282,14.1657197 52.7412524,13.2926136 C53.1711767,12.4195076 53.3861388,11.3731061 53.3861388,10.1534091 C53.3861388,8.94507576 53.1759115,7.90909091 52.755457,7.04545455 C52.3350024,6.18181818 51.7298888,5.51893939 50.9401161,5.05681818 C50.1503433,4.59469697 49.2005327,4.36363636 48.0906842,4.36363636 L48.0906842,4.36363636 L44.4770479,4.36363636 L44.4770479,16 L47.8861388,16 Z M47.8236388,15.0454545 L45.5395479,15.0454545 L45.5395479,5.31818182 L48.0281842,5.31818182 C48.9713661,5.31818182 49.7639797,5.51136364 50.4060251,5.89772727 C51.0480706,6.28409091 51.5329191,6.83901515 51.8605706,7.5625 C52.1882221,8.28598485 52.3539418,9.14962121 52.3577297,10.1534091 C52.3577297,11.1647727 52.1891691,12.0359848 51.8520479,12.7670455 C51.5149267,13.4981061 51.0092448,14.0606061 50.3350024,14.4545455 C49.66076,14.8484848 48.8236388,15.0454545 47.8236388,15.0454545 L47.8236388,15.0454545 Z M60.4600038,16.1590909 C61.4410644,16.1590909 62.3094356,15.9138258 63.0651174,15.4232955 C63.8207993,14.9327652 64.4145493,14.2395833 64.8463674,13.34375 C65.2781856,12.4479167 65.4940947,11.3939394 65.4940947,10.1818182 C65.4940947,8.96969697 65.2781856,7.9157197 64.8463674,7.01988636 C64.4145493,6.12405303 63.8207993,5.43087121 63.0651174,4.94034091 C62.3094356,4.44981061 61.4410644,4.20454545 60.4600038,4.20454545 C59.4827311,4.20454545 58.6153068,4.44981061 57.8577311,4.94034091 C57.1001553,5.43087121 56.5064053,6.12405303 56.0764811,7.01988636 C55.6465568,7.9157197 55.4315947,8.96969697 55.4315947,10.1818182 C55.4315947,11.3939394 55.6465568,12.4479167 56.0764811,13.34375 C56.5064053,14.2395833 57.0992084,14.9327652 57.8548902,15.4232955 C58.610572,15.9138258 59.4789432,16.1590909 60.4600038,16.1590909 Z M60.4600038,15.1590909 C59.6948523,15.1590909 59.0111402,14.9611742 58.4088674,14.5653409 C57.8065947,14.1695076 57.3312159,13.6003788 56.9827311,12.8579545 C56.6342462,12.1155303 56.4600038,11.2234848 56.4600038,10.1818182 C56.4600038,9.13636364 56.6351932,8.24242424 56.985572,7.5 C57.3359508,6.75757576 57.8122765,6.18939394 58.4145493,5.79545455 C59.016822,5.40151515 59.6986402,5.20454545 60.4600038,5.20454545 C61.2251553,5.20454545 61.9088674,5.40151515 62.5111402,5.79545455 C63.1134129,6.18939394 63.5887917,6.75852273 63.9372765,7.50284091 C64.2857614,8.24715909 64.4600649,9.14015152 64.4600649,10.1818182 C64.4637917,11.2234848 64.2914432,12.1164773 63.9429584,12.8607955 C63.5944735,13.6051136 63.1181477,14.1742424 62.5139811,14.5681818 C61.9098144,14.9621212 61.2251553,15.1590909 60.4600038,15.1590909 Z M71.2194781,16 L73.9183418,6.13068182 L73.9922054,6.13068182 L76.691069,16 L77.8274327,16 L81.0149327,4.36363636 L79.9297054,4.36363636 L77.2933418,14.3693182 L77.2024327,14.3693182 L74.566069,4.36363636 L73.3387963,4.36363636 L70.7024327,14.3693182 L70.6115236,14.3693182 L67.9751599,4.36363636 L66.8956145,4.36363636 L70.0831145,16 L71.2194781,16 Z M84.0016936,16 L84.0016936,6.25568182 L84.0926027,6.25568182 L90.9676027,16 L92.0016936,16 L92.0016936,4.36363636 L90.956239,4.36363636 L90.956239,14.1193182 L90.86533,14.1193182 L83.9676027,4.36363636 L82.9391936,4.36363636 L82.9391936,16 L84.0016936,16 Z" id="path-5"></path>
        <path d="M6.24263636,514.159091 C6.85627273,514.159091 7.39983333,514.034091 7.87331818,513.784091 C8.34680303,513.534091 8.71801515,513.15625 8.98695455,512.650568 C9.25589394,512.144886 9.39225758,511.513258 9.39604545,510.755682 L9.39604545,510.755682 L9.39604545,502.363636 L8.33354545,502.363636 L8.33354545,510.755682 C8.33354545,511.316288 8.2445303,511.777462 8.0665,512.139205 C7.8884697,512.500947 7.64320455,512.768939 7.33070455,512.943182 C7.01820455,513.117424 6.65551515,513.204545 6.24263636,513.204545 C5.84490909,513.204545 5.48790152,513.130682 5.17161364,512.982955 C4.85532576,512.835227 4.60627273,512.629735 4.42445455,512.366477 C4.24263636,512.10322 4.15172727,511.799242 4.15172727,511.454545 L4.15172727,511.454545 L3.10627273,511.454545 C3.10627273,512 3.24168939,512.475379 3.51252273,512.880682 C3.78335606,513.285985 4.15551515,513.600379 4.629,513.823864 C5.10248485,514.047348 5.64036364,514.159091 6.24263636,514.159091 Z M16.8941589,514.198864 C17.704765,514.198864 18.4434013,514.030303 19.110068,513.693182 C19.7767347,513.356061 20.3089316,512.878788 20.7066589,512.261364 C21.1043862,511.643939 21.3032498,510.912879 21.3032498,510.068182 L21.3032498,510.068182 L21.3032498,502.363636 L20.2407498,502.363636 L20.2407498,510.068182 C20.2407498,510.712121 20.0901816,511.267992 19.7890453,511.735795 C19.4879089,512.203598 19.0835529,512.564394 18.5759771,512.818182 C18.0684013,513.07197 17.5077953,513.198864 16.8941589,513.198864 C16.2805225,513.198864 15.7199165,513.07197 15.2123407,512.818182 C14.704765,512.564394 14.3004089,512.203598 13.9992725,511.735795 C13.6981362,511.267992 13.547568,510.712121 13.547568,510.068182 L13.547568,510.068182 L13.547568,502.363636 L12.485068,502.363636 L12.485068,510.068182 C12.485068,510.909091 12.6839316,511.639205 13.0816589,512.258523 C13.4793862,512.877841 14.0115832,513.356061 14.6782498,513.693182 C15.3449165,514.030303 16.0835529,514.198864 16.8941589,514.198864 Z M25.4566561,514 L25.4566561,504.255682 L25.5475652,504.255682 L32.4225652,514 L33.4566561,514 L33.4566561,502.363636 L32.4112016,502.363636 L32.4112016,512.119318 L32.3202925,512.119318 L25.4225652,502.363636 L24.3941561,502.363636 L24.3941561,514 L25.4566561,514 Z" id="path-6"></path>
        <path d="M9.39363636,613.159091 C10.0072727,613.159091 10.5508333,613.034091 11.0243182,612.784091 C11.497803,612.534091 11.8690152,612.15625 12.1379545,611.650568 C12.4068939,611.144886 12.5432576,610.513258 12.5470455,609.755682 L12.5470455,609.755682 L12.5470455,601.363636 L11.4845455,601.363636 L11.4845455,609.755682 C11.4845455,610.316288 11.3955303,610.777462 11.2175,611.139205 C11.0394697,611.500947 10.7942045,611.768939 10.4817045,611.943182 C10.1692045,612.117424 9.80651515,612.204545 9.39363636,612.204545 C8.99590909,612.204545 8.63890152,612.130682 8.32261364,611.982955 C8.00632576,611.835227 7.75727273,611.629735 7.57545455,611.366477 C7.39363636,611.10322 7.30272727,610.799242 7.30272727,610.454545 L7.30272727,610.454545 L6.25727273,610.454545 C6.25727273,611 6.39268939,611.475379 6.66352273,611.880682 C6.93435606,612.285985 7.30651515,612.600379 7.78,612.823864 C8.25348485,613.047348 8.79136364,613.159091 9.39363636,613.159091 Z M20.0451589,613.198864 C20.855765,613.198864 21.5944013,613.030303 22.261068,612.693182 C22.9277347,612.356061 23.4599316,611.878788 23.8576589,611.261364 C24.2553862,610.643939 24.4542498,609.912879 24.4542498,609.068182 L24.4542498,609.068182 L24.4542498,601.363636 L23.3917498,601.363636 L23.3917498,609.068182 C23.3917498,609.712121 23.2411816,610.267992 22.9400453,610.735795 C22.6389089,611.203598 22.2345529,611.564394 21.7269771,611.818182 C21.2194013,612.07197 20.6587953,612.198864 20.0451589,612.198864 C19.4315225,612.198864 18.8709165,612.07197 18.3633407,611.818182 C17.855765,611.564394 17.4514089,611.203598 17.1502725,610.735795 C16.8491362,610.267992 16.698568,609.712121 16.698568,609.068182 L16.698568,609.068182 L16.698568,601.363636 L15.636068,601.363636 L15.636068,609.068182 C15.636068,609.909091 15.8349316,610.639205 16.2326589,611.258523 C16.6303862,611.877841 17.1625832,612.356061 17.8292498,612.693182 C18.4959165,613.030303 19.2345529,613.198864 20.0451589,613.198864 Z M34.1531107,613 L34.1531107,612.045455 L28.6076561,612.045455 L28.6076561,601.363636 L27.5451561,601.363636 L27.5451561,613 L34.1531107,613 Z" id="path-7"></path>
        <path d="M2.2895,717 L3.536,713.495 L8.417,713.495 L9.6645,717 L10.7781364,717 L6.54518182,705.363636 L5.40881818,705.363636 L1.17586364,717 L2.2895,717 Z M8.077,712.54 L3.876,712.54 L5.93722727,706.744318 L6.01677273,706.744318 L8.077,712.54 Z M17.1815649,717.198864 C17.9921709,717.198864 18.7308073,717.030303 19.397474,716.693182 C20.0641406,716.356061 20.5963376,715.878788 20.9940649,715.261364 C21.3917921,714.643939 21.5906558,713.912879 21.5906558,713.068182 L21.5906558,713.068182 L21.5906558,705.363636 L20.5281558,705.363636 L20.5281558,713.068182 C20.5281558,713.712121 20.3775876,714.267992 20.0764512,714.735795 C19.7753149,715.203598 19.3709588,715.564394 18.8633831,715.818182 C18.3558073,716.07197 17.7952012,716.198864 17.1815649,716.198864 C16.5679285,716.198864 16.0073225,716.07197 15.4997467,715.818182 C14.9921709,715.564394 14.5878149,715.203598 14.2866785,714.735795 C13.9855421,714.267992 13.834974,713.712121 13.834974,713.068182 L13.834974,713.068182 L13.834974,705.363636 L12.772474,705.363636 L12.772474,713.068182 C12.772474,713.909091 12.9713376,714.639205 13.3690649,715.258523 C13.7667921,715.877841 14.2989891,716.356061 14.9656558,716.693182 C15.6323225,717.030303 16.3709588,717.198864 17.1815649,717.198864 Z M29.2326985,717.159091 C30.1417894,717.159091 30.9467136,716.962121 31.6474712,716.568182 C32.3482288,716.174242 32.8993651,715.61553 33.3008803,714.892045 C33.7023954,714.168561 33.903153,713.310606 33.903153,712.318182 L33.903153,712.318182 L33.903153,711.363636 L29.4826985,711.363636 L29.4826985,712.318182 L32.867,712.319 L32.86449,712.510387 C32.8405198,713.100231 32.7275937,713.627219 32.5257116,714.091353 L32.4173576,714.318182 C32.1086454,714.909091 31.6796682,715.363636 31.1304257,715.681818 C30.5811833,716 29.9486076,716.159091 29.2326985,716.159091 C28.4486076,716.159091 27.7525848,715.961174 27.1446303,715.565341 C26.5366757,715.169508 26.058456,714.600379 25.7099712,713.857955 C25.3614863,713.11553 25.1872439,712.223485 25.1872439,711.181818 C25.1872439,710.136364 25.3605394,709.242424 25.7071303,708.5 C26.0537212,707.757576 26.5262591,707.189394 27.1247439,706.795455 C27.7232288,706.401515 28.4012591,706.204545 29.1588348,706.204545 C29.6398954,706.204545 30.0764485,706.276515 30.4684939,706.420455 C30.8605394,706.564394 31.2071303,706.764205 31.5082666,707.019886 C31.809403,707.275568 32.0622439,707.572917 32.2667894,707.911932 C32.4713348,708.250947 32.6266379,708.613636 32.7326985,709 L32.7326985,709 L33.8236076,709 C33.7326985,708.484848 33.5575091,707.999053 33.2980394,707.542614 C33.0385697,707.086174 32.7071303,706.682765 32.3037212,706.332386 C31.9003121,705.982008 31.434403,705.706439 30.9059939,705.505682 C30.3775848,705.304924 29.7951985,705.204545 29.1588348,705.204545 C28.1777742,705.204545 27.31035,705.448864 26.5565621,705.9375 C25.8027742,706.426136 25.214706,707.118371 24.7923576,708.014205 C24.3700091,708.910038 24.1588348,709.965909 24.1588348,711.181818 C24.1588348,712.393939 24.3700091,713.447917 24.7923576,714.34375 C25.214706,715.239583 25.8065621,715.932765 26.5679257,716.423295 C27.3292894,716.913826 28.2175469,717.159091 29.2326985,717.159091 Z" id="path-8"></path>
        <path d="M10.4490455,820.198864 C11.2899545,820.198864 12.0115455,820.053977 12.6138182,819.764205 C13.2160909,819.474432 13.6782121,819.081439 14.0001818,818.585227 C14.3221515,818.089015 14.4831364,817.530303 14.4831364,816.909091 C14.4831364,816.424242 14.3893864,816.008523 14.2018864,815.661932 C14.0143864,815.315341 13.7662803,815.02178 13.4575682,814.78125 C13.1488561,814.54072 12.8088939,814.340909 12.4376818,814.181818 C12.0664697,814.022727 11.6952576,813.892045 11.3240455,813.789773 L11.3240455,813.789773 L10.0967727,813.4375 C9.72177273,813.331439 9.35624242,813.191288 9.00018182,813.017045 C8.64412121,812.842803 8.35150758,812.618371 8.12234091,812.34375 C7.89317424,812.069129 7.77859091,811.727273 7.77859091,811.318182 C7.77859091,810.901515 7.89506818,810.529356 8.12802273,810.201705 C8.36097727,809.874053 8.68294697,809.617424 9.09393182,809.431818 C9.50491667,809.246212 9.98124242,809.153409 10.5229091,809.153409 C11.2918485,809.153409 11.9301061,809.344697 12.4376818,809.727273 C12.9452576,810.109848 13.2312424,810.625 13.2956364,811.272727 L13.2956364,811.272727 L14.3240455,811.272727 C14.3013182,810.681818 14.1261288,810.154356 13.7984773,809.690341 C13.4708258,809.226326 13.0285909,808.861742 12.4717727,808.596591 C11.9149545,808.331439 11.274803,808.198864 10.5513182,808.198864 C9.83540909,808.198864 9.19052273,808.332386 8.61665909,808.599432 C8.04279545,808.866477 7.58825,809.237689 7.25302273,809.713068 C6.91779545,810.188447 6.75018182,810.738636 6.75018182,811.363636 C6.75018182,812.109848 7.00207576,812.723485 7.50586364,813.204545 C8.00965152,813.685606 8.71798485,814.0625 9.63086364,814.335227 L9.63086364,814.335227 L11.0229091,814.744318 C11.5039697,814.88447 11.9272652,815.045455 12.2927955,815.227273 C12.6583258,815.409091 12.9433636,815.633523 13.1479091,815.900568 C13.3524545,816.167614 13.4547273,816.498106 13.4547273,816.892045 C13.4547273,817.357955 13.3249924,817.766098 13.0655227,818.116477 C12.806053,818.466856 12.4499924,818.739583 11.9973409,818.934659 C11.5446894,819.129735 11.0285909,819.227273 10.4490455,819.227273 C9.92631818,819.227273 9.45283333,819.144886 9.02859091,818.980114 C8.60434848,818.815341 8.25965152,818.573864 7.9945,818.255682 C7.72934848,817.9375 7.57783333,817.549242 7.53995455,817.090909 L7.53995455,817.090909 L6.44904545,817.090909 C6.49071212,817.704545 6.67821212,818.244318 7.01154545,818.710227 C7.34487879,819.176136 7.80321212,819.54072 8.38654545,819.803977 C8.96987879,820.067235 9.65737879,820.198864 10.4490455,820.198864 Z M23.9092811,820 L23.9092811,819.045455 L18.1081447,819.045455 L18.1081447,814.653409 L23.4376901,814.653409 L23.4376901,813.698864 L18.1081447,813.698864 L18.1081447,809.318182 L23.7956447,809.318182 L23.7956447,808.363636 L17.0456447,808.363636 L17.0456447,820 L23.9092811,820 Z M27.6005736,820 L27.6,815.552 L30.3108008,815.551136 C31.0414406,815.551136 31.6658326,815.426183 32.183977,815.176277 L32.3733008,815.076705 C32.9263311,814.760417 33.3429978,814.330492 33.6233008,813.786932 C33.9036039,813.243371 34.0437554,812.632576 34.0437554,811.954545 C34.0437554,811.276515 33.9026569,810.666667 33.6204599,810.125 C33.3382629,809.583333 32.9197023,809.154356 32.3647781,808.838068 C31.8098539,808.52178 31.1195129,808.363636 30.2937554,808.363636 L30.2937554,808.363636 L26.5380736,808.363636 L26.5380736,820 L27.6005736,820 Z M27.6005736,809.318182 L30.2653463,809.318182 C30.8827705,809.318182 31.3931872,809.431818 31.7965963,809.659091 C32.2000054,809.886364 32.5011417,810.198864 32.7000054,810.596591 C32.898869,810.994318 32.9983008,811.44697 32.9983008,811.954545 C32.9983008,812.462121 32.898869,812.914773 32.7000054,813.3125 C32.5011417,813.710227 32.2009523,814.023674 31.7994372,814.252841 C31.397922,814.482008 30.8922402,814.596591 30.2823917,814.596591 L30.2823917,814.596591 L27.6,814.597 L27.6005736,809.318182 Z" id="path-9"></path>
        <path d="M7.21013636,919.159091 C8.19119697,919.159091 9.05956818,918.913826 9.81525,918.423295 C10.5709318,917.932765 11.1646818,917.239583 11.5965,916.34375 C12.0283182,915.447917 12.2442273,914.393939 12.2442273,913.181818 C12.2442273,911.969697 12.0283182,910.91572 11.5965,910.019886 C11.1646818,909.124053 10.5709318,908.430871 9.81525,907.940341 C9.05956818,907.449811 8.19119697,907.204545 7.21013636,907.204545 C6.23286364,907.204545 5.36543939,907.449811 4.60786364,907.940341 C3.85028788,908.430871 3.25653788,909.124053 2.82661364,910.019886 C2.39668939,910.91572 2.18172727,911.969697 2.18172727,913.181818 C2.18172727,914.393939 2.39668939,915.447917 2.82661364,916.34375 C3.25653788,917.239583 3.84934091,917.932765 4.60502273,918.423295 C5.36070455,918.913826 6.22907576,919.159091 7.21013636,919.159091 Z M7.21013636,918.159091 C6.44498485,918.159091 5.76127273,917.961174 5.159,917.565341 C4.55672727,917.169508 4.08134848,916.600379 3.73286364,915.857955 C3.38437879,915.11553 3.21013636,914.223485 3.21013636,913.181818 C3.21013636,912.136364 3.38532576,911.242424 3.73570455,910.5 C4.08608333,909.757576 4.56240909,909.189394 5.16468182,908.795455 C5.76695455,908.401515 6.44877273,908.204545 7.21013636,908.204545 C7.97528788,908.204545 8.659,908.401515 9.26127273,908.795455 C9.86354545,909.189394 10.3389242,909.758523 10.6874091,910.502841 C11.0358939,911.247159 11.2101975,912.140152 11.2101975,913.181818 C11.2139242,914.223485 11.0415758,915.116477 10.6930909,915.860795 C10.3446061,916.605114 9.8682803,917.174242 9.26411364,917.568182 C8.65994697,917.962121 7.97528788,918.159091 7.21013636,918.159091 Z M19.3162016,919.159091 C19.9374137,919.159091 20.5074895,919.0625 21.0264289,918.869318 C21.5453683,918.676136 22.0046486,918.407197 22.4042698,918.0625 C22.803891,917.717803 23.1334364,917.315341 23.3929061,916.855114 C23.6523758,916.394886 23.8294592,915.897727 23.9241561,915.363636 L23.9241561,915.363636 L22.8559743,915.363636 C22.7764289,915.761364 22.6334364,916.130682 22.426997,916.471591 C22.2205577,916.8125 21.9620349,917.108902 21.6514289,917.360795 C21.3408228,917.612689 20.9885501,917.808712 20.5946107,917.948864 C20.2006713,918.089015 19.7745349,918.159091 19.3162016,918.159091 C18.5813531,918.159091 17.9118455,917.96875 17.3076789,917.588068 C16.7035122,917.207386 16.2205577,916.647727 15.8588152,915.909091 C15.4970728,915.170455 15.3162016,914.261364 15.3162016,913.181818 C15.3162016,912.109848 15.4970728,911.203598 15.8588152,910.463068 C16.2205577,909.722538 16.7035122,909.160985 17.3076789,908.778409 C17.9118455,908.395833 18.5813531,908.204545 19.3162016,908.204545 C19.7745349,908.204545 20.2006713,908.274621 20.5946107,908.414773 C20.9885501,908.554924 21.3408228,908.751894 21.6514289,909.005682 C21.9620349,909.25947 22.2205577,909.555871 22.426997,909.894886 C22.6334364,910.233902 22.7764289,910.602273 22.8559743,911 L22.8559743,911 L23.9241561,911 C23.8294592,910.462121 23.6523758,909.964015 23.3929061,909.505682 C23.1334364,909.047348 22.803891,908.644886 22.4042698,908.298295 C22.0046486,907.951705 21.5453683,907.682765 21.0264289,907.491477 C20.5074895,907.300189 19.9374137,907.204545 19.3162016,907.204545 C18.3389289,907.204545 17.4715046,907.449811 16.7139289,907.940341 C15.9563531,908.430871 15.3626031,909.123106 14.9326789,910.017045 C14.5027546,910.910985 14.2877925,911.965909 14.2877925,913.181818 C14.2877925,914.397727 14.5027546,915.452652 14.9326789,916.346591 C15.3626031,917.24053 15.9563531,917.932765 16.7139289,918.423295 C17.4715046,918.913826 18.3389289,919.159091 19.3162016,919.159091 Z M30.4696121,919 L30.4696121,908.318182 L34.1571121,908.318182 L34.1571121,907.363636 L25.7196121,907.363636 L25.7196121,908.318182 L29.4071121,908.318182 L29.4071121,919 L30.4696121,919 Z" id="path-10"></path>
        <path d="M2.84995455,1021 L2.84995455,1011.25568 L2.94086364,1011.25568 L9.81586364,1021 L10.8499545,1021 L10.8499545,1009.36364 L9.8045,1009.36364 L9.8045,1019.11932 L9.71359091,1019.11932 L2.81586364,1009.36364 L1.78745455,1009.36364 L1.78745455,1021 L2.84995455,1021 Z M18.444645,1021.15909 C19.4257056,1021.15909 20.2940769,1020.91383 21.0497587,1020.4233 C21.8054405,1019.93277 22.3991905,1019.23958 22.8310087,1018.34375 C23.2628269,1017.44792 23.478736,1016.39394 23.478736,1015.18182 C23.478736,1013.9697 23.2628269,1012.91572 22.8310087,1012.01989 C22.3991905,1011.12405 21.8054405,1010.43087 21.0497587,1009.94034 C20.2940769,1009.44981 19.4257056,1009.20455 18.444645,1009.20455 C17.4673723,1009.20455 16.5999481,1009.44981 15.8423723,1009.94034 C15.0847966,1010.43087 14.4910466,1011.12405 14.0611223,1012.01989 C13.6311981,1012.91572 13.416236,1013.9697 13.416236,1015.18182 C13.416236,1016.39394 13.6311981,1017.44792 14.0611223,1018.34375 C14.4910466,1019.23958 15.0838496,1019.93277 15.8395314,1020.4233 C16.5952132,1020.91383 17.4635844,1021.15909 18.444645,1021.15909 Z M18.444645,1020.15909 C17.6794935,1020.15909 16.9957814,1019.96117 16.3935087,1019.56534 C15.791236,1019.16951 15.3158572,1018.60038 14.9673723,1017.85795 C14.6188875,1017.11553 14.444645,1016.22348 14.444645,1015.18182 C14.444645,1014.13636 14.6198344,1013.24242 14.9702132,1012.5 C15.320592,1011.75758 15.7969178,1011.18939 16.3991905,1010.79545 C17.0014632,1010.40152 17.6832814,1010.20455 18.444645,1010.20455 C19.2097966,1010.20455 19.8935087,1010.40152 20.4957814,1010.79545 C21.0980541,1011.18939 21.5734329,1011.75852 21.9219178,1012.50284 C22.2704026,1013.24716 22.4447061,1014.14015 22.4447061,1015.18182 C22.4484329,1016.22348 22.2760844,1017.11648 21.9275996,1017.8608 C21.5791147,1018.60511 21.102789,1019.17424 20.4986223,1019.56818 C19.8944556,1019.96212 19.2097966,1020.15909 18.444645,1020.15909 Z M29.7723012,1021 L34.0052557,1009.36364 L32.8916194,1009.36364 L29.2552557,1019.61932 L29.152983,1019.61932 L25.5166194,1009.36364 L24.402983,1009.36364 L28.6359375,1021 L29.7723012,1021 Z" id="path-11"></path>
        <path d="M7.37154545,1120 C8.53821212,1120 9.53158333,1119.76705 10.3516591,1119.30114 C11.1717348,1118.83523 11.7967348,1118.16572 12.2266591,1117.29261 C12.6565833,1116.41951 12.8715455,1115.37311 12.8715455,1114.15341 C12.8715455,1112.94508 12.6613182,1111.90909 12.2408636,1111.04545 C11.8204091,1110.18182 11.2152955,1109.51894 10.4255227,1109.05682 C9.63575,1108.5947 8.68593939,1108.36364 7.57609091,1108.36364 L7.57609091,1108.36364 L3.96245455,1108.36364 L3.96245455,1120 L7.37154545,1120 Z M7.30904545,1119.04545 L5.02495455,1119.04545 L5.02495455,1109.31818 L7.51359091,1109.31818 C8.45677273,1109.31818 9.24938636,1109.51136 9.89143182,1109.89773 C10.5334773,1110.28409 11.0183258,1110.83902 11.3459773,1111.5625 C11.6736288,1112.28598 11.8393485,1113.14962 11.8431364,1114.15341 C11.8431364,1115.16477 11.6745758,1116.03598 11.3374545,1116.76705 C11.0003333,1117.49811 10.4946515,1118.06061 9.82040909,1118.45455 C9.14616667,1118.84848 8.30904545,1119.04545 7.30904545,1119.04545 L7.30904545,1119.04545 Z M22.303365,1120 L22.303365,1119.04545 L16.5022287,1119.04545 L16.5022287,1114.65341 L21.8317741,1114.65341 L21.8317741,1113.69886 L16.5022287,1113.69886 L16.5022287,1109.31818 L22.1897287,1109.31818 L22.1897287,1108.36364 L15.4397287,1108.36364 L15.4397287,1120 L22.303365,1120 Z M29.4378393,1120.15909 C30.0590515,1120.15909 30.6291272,1120.0625 31.1480666,1119.86932 C31.667006,1119.67614 32.1262863,1119.4072 32.5259075,1119.0625 C32.9255287,1118.7178 33.2550742,1118.31534 33.5145439,1117.85511 C33.7740136,1117.39489 33.9510969,1116.89773 34.0457939,1116.36364 L34.0457939,1116.36364 L32.9776121,1116.36364 C32.8980666,1116.76136 32.7550742,1117.13068 32.5486348,1117.47159 C32.3421954,1117.8125 32.0836727,1118.1089 31.7730666,1118.3608 C31.4624606,1118.61269 31.1101878,1118.80871 30.7162484,1118.94886 C30.322309,1119.08902 29.8961727,1119.15909 29.4378393,1119.15909 C28.7029909,1119.15909 28.0334833,1118.96875 27.4293166,1118.58807 C26.82515,1118.20739 26.3421954,1117.64773 25.980453,1116.90909 C25.6187106,1116.17045 25.4378393,1115.26136 25.4378393,1114.18182 C25.4378393,1113.10985 25.6187106,1112.2036 25.980453,1111.46307 C26.3421954,1110.72254 26.82515,1110.16098 27.4293166,1109.77841 C28.0334833,1109.39583 28.7029909,1109.20455 29.4378393,1109.20455 C29.8961727,1109.20455 30.322309,1109.27462 30.7162484,1109.41477 C31.1101878,1109.55492 31.4624606,1109.75189 31.7730666,1110.00568 C32.0836727,1110.25947 32.3421954,1110.55587 32.5486348,1110.89489 C32.7550742,1111.2339 32.8980666,1111.60227 32.9776121,1112 L32.9776121,1112 L34.0457939,1112 C33.9510969,1111.46212 33.7740136,1110.96402 33.5145439,1110.50568 C33.2550742,1110.04735 32.9255287,1109.64489 32.5259075,1109.2983 C32.1262863,1108.9517 31.667006,1108.68277 31.1480666,1108.49148 C30.6291272,1108.30019 30.0590515,1108.20455 29.4378393,1108.20455 C28.4605666,1108.20455 27.5931424,1108.44981 26.8355666,1108.94034 C26.0779909,1109.43087 25.4842409,1110.12311 25.0543166,1111.01705 C24.6243924,1111.91098 24.4094303,1112.96591 24.4094303,1114.18182 C24.4094303,1115.39773 24.6243924,1116.45265 25.0543166,1117.34659 C25.4842409,1118.24053 26.0779909,1118.93277 26.8355666,1119.4233 C27.5931424,1119.91383 28.4605666,1120.15909 29.4378393,1120.15909 Z" id="path-12"></path>
        <path d="M193.507364,319.159091 C194.177818,319.159091 194.763992,319.000947 195.265886,318.684659 C195.76778,318.368371 196.184447,317.921402 196.515886,317.34375 C196.847326,316.766098 197.096379,316.081439 197.263045,315.289773 C197.429712,314.498106 197.513045,313.626894 197.513045,312.676136 C197.513045,311.653409 197.405091,310.791667 197.189182,310.090909 C196.973273,309.390152 196.681606,308.827652 196.314182,308.403409 C195.946758,307.979167 195.534826,307.670455 195.078386,307.477273 C194.621947,307.284091 194.151303,307.185606 193.666455,307.181757 C192.92403,307.17803 192.27725,307.349432 191.726114,307.696023 C191.174977,308.042614 190.746947,308.506629 190.442023,309.088068 C190.137098,309.669508 189.984636,310.306818 189.984636,311 C189.984636,311.731061 190.145621,312.381629 190.467591,312.951705 C190.789561,313.52178 191.219485,313.970644 191.757364,314.298295 C192.295242,314.625947 192.888045,314.789773 193.535773,314.789773 C193.952439,314.789773 194.348273,314.71875 194.723273,314.576705 C195.098273,314.434659 195.432553,314.236742 195.726114,313.982955 C196.019674,313.729167 196.257364,313.431818 196.439182,313.090909 L196.439182,313.090909 L196.513045,313.090909 C196.513045,314.727273 196.249788,315.988636 195.723273,316.875 C195.196758,317.761364 194.458121,318.204545 193.507364,318.204545 C192.844485,318.204545 192.313235,318.003788 191.913614,317.602273 C191.513992,317.200758 191.263045,316.689394 191.160773,316.068182 L191.160773,316.068182 L190.115318,316.068182 C190.187288,316.67803 190.372894,317.214962 190.672136,317.678977 C190.971379,318.142992 191.362477,318.505682 191.845432,318.767045 C192.328386,319.028409 192.882364,319.159091 193.507364,319.159091 Z M193.666455,313.835227 C193.162667,313.835227 192.710962,313.70928 192.311341,313.457386 C191.91172,313.205492 191.595432,312.864583 191.362477,312.434659 C191.129523,312.004735 191.013045,311.526515 191.013045,311 C191.013045,310.473485 191.129523,309.993371 191.362477,309.559659 C191.595432,309.125947 191.91172,308.780303 192.311341,308.522727 C192.710962,308.265152 193.162667,308.136364 193.666455,308.136364 C194.147515,308.136364 194.58028,308.257576 194.96475,308.5 C195.34922,308.742424 195.659826,309.074811 195.896568,309.497159 C196.133311,309.919508 196.274409,310.397727 196.319864,310.931818 C196.357742,311.443182 196.261152,311.919508 196.030091,312.360795 C195.79903,312.802083 195.476114,313.158144 195.061341,313.428977 C194.646568,313.699811 194.181606,313.835227 193.666455,313.835227 Z M203.520635,319.159091 C204.263059,319.159091 204.923097,319.018939 205.500748,318.738636 C206.0784,318.458333 206.532945,318.074811 206.864385,317.588068 C207.195824,317.101326 207.361544,316.551136 207.361544,315.9375 C207.361544,315.456439 207.259271,315.006629 207.054726,314.588068 C206.85018,314.169508 206.573665,313.816288 206.22518,313.528409 C205.876695,313.24053 205.482756,313.054924 205.043362,312.971591 L205.043362,312.971591 L205.043362,312.909091 C205.611544,312.746212 206.069877,312.417614 206.418362,311.923295 C206.766847,311.428977 206.942983,310.871212 206.946771,310.25 C206.942983,309.670455 206.790521,309.151515 206.489385,308.693182 C206.188248,308.234848 205.780104,307.872159 205.264953,307.605114 C204.749801,307.338068 204.168362,307.204545 203.520635,307.204545 C202.869119,307.204545 202.284839,307.338068 201.767794,307.605114 C201.250748,307.872159 200.842604,308.234848 200.543362,308.693182 C200.244119,309.151515 200.096392,309.670455 200.10018,310.25 C200.096392,310.875 200.268741,311.432765 200.617226,311.923295 C200.96571,312.413826 201.425938,312.742424 201.997907,312.909091 L201.997907,312.909091 L201.997907,312.971591 C201.558513,313.058712 201.16268,313.245265 200.810407,313.53125 C200.458135,313.817235 200.181619,314.169508 199.980862,314.588068 C199.780104,315.006629 199.679726,315.456439 199.679726,315.9375 C199.679726,316.551136 199.844498,317.101326 200.174044,317.588068 C200.503589,318.074811 200.958135,318.458333 201.53768,318.738636 C202.117226,319.018939 202.77821,319.159091 203.520635,319.159091 Z M203.520635,312.539773 C203.066089,312.539773 202.657945,312.443182 202.296203,312.25 C201.93446,312.056818 201.648476,311.792614 201.438248,311.457386 C201.228021,311.122159 201.124801,310.74053 201.128589,310.3125 C201.124801,309.888258 201.226127,309.512311 201.432566,309.184659 C201.639006,308.857008 201.923097,308.601326 202.284839,308.417614 C202.646582,308.233902 203.058513,308.142045 203.520635,308.142045 C203.982756,308.142045 204.392794,308.233902 204.750748,308.417614 C205.108703,308.601326 205.391847,308.857008 205.60018,309.184659 C205.808513,309.512311 205.914574,309.888258 205.918362,310.3125 C205.914574,310.74053 205.807566,311.122159 205.597339,311.457386 C205.387112,311.792614 205.102074,312.056818 204.742226,312.25 C204.382377,312.443182 203.97518,312.539773 203.520635,312.539773 Z M203.520635,318.204545 C202.967604,318.204545 202.479915,318.105114 202.057566,317.90625 C201.635218,317.707386 201.307566,317.433712 201.074612,317.085227 C200.841657,316.736742 200.72518,316.337121 200.72518,315.886364 C200.72518,315.420455 200.847339,315.004735 201.091657,314.639205 C201.335976,314.273674 201.669309,313.983902 202.091657,313.769886 C202.514006,313.555871 202.990332,313.448864 203.520635,313.448864 C204.050938,313.448864 204.526316,313.555871 204.946771,313.769886 C205.367226,313.983902 205.700559,314.273674 205.946771,314.639205 C206.192983,315.004735 206.316089,315.420455 206.316089,315.886364 C206.316089,316.337121 206.197718,316.736742 205.960976,317.085227 C205.724233,317.433712 205.396582,317.707386 204.978021,317.90625 C204.55946,318.105114 204.073665,318.204545 203.520635,318.204545 Z M213.308518,319.159091 C214.050942,319.159091 214.71098,319.018939 215.288632,318.738636 C215.866283,318.458333 216.320829,318.074811 216.652268,317.588068 C216.983707,317.101326 217.149427,316.551136 217.149427,315.9375 C217.149427,315.456439 217.047154,315.006629 216.842609,314.588068 C216.638063,314.169508 216.361548,313.816288 216.013063,313.528409 C215.664579,313.24053 215.270639,313.054924 214.831245,312.971591 L214.831245,312.971591 L214.831245,312.909091 C215.399427,312.746212 215.85776,312.417614 216.206245,311.923295 C216.55473,311.428977 216.730867,310.871212 216.734654,310.25 C216.730867,309.670455 216.578404,309.151515 216.277268,308.693182 C215.976132,308.234848 215.567988,307.872159 215.052836,307.605114 C214.537685,307.338068 213.956245,307.204545 213.308518,307.204545 C212.657003,307.204545 212.072723,307.338068 211.555677,307.605114 C211.038632,307.872159 210.630488,308.234848 210.331245,308.693182 C210.032003,309.151515 209.884276,309.670455 209.888063,310.25 C209.884276,310.875 210.056624,311.432765 210.405109,311.923295 C210.753594,312.413826 211.213821,312.742424 211.785791,312.909091 L211.785791,312.909091 L211.785791,312.971591 C211.346397,313.058712 210.950563,313.245265 210.598291,313.53125 C210.246018,313.817235 209.969503,314.169508 209.768745,314.588068 C209.567988,315.006629 209.467609,315.456439 209.467609,315.9375 C209.467609,316.551136 209.632382,317.101326 209.961927,317.588068 C210.291473,318.074811 210.746018,318.458333 211.325563,318.738636 C211.905109,319.018939 212.566094,319.159091 213.308518,319.159091 Z M213.308518,312.539773 C212.853973,312.539773 212.445829,312.443182 212.084086,312.25 C211.722344,312.056818 211.436359,311.792614 211.226132,311.457386 C211.015904,311.122159 210.912685,310.74053 210.916473,310.3125 C210.912685,309.888258 211.01401,309.512311 211.22045,309.184659 C211.426889,308.857008 211.71098,308.601326 212.072723,308.417614 C212.434465,308.233902 212.846397,308.142045 213.308518,308.142045 C213.770639,308.142045 214.180677,308.233902 214.538632,308.417614 C214.896586,308.601326 215.17973,308.857008 215.388063,309.184659 C215.596397,309.512311 215.702457,309.888258 215.706245,310.3125 C215.702457,310.74053 215.59545,311.122159 215.385223,311.457386 C215.174995,311.792614 214.889957,312.056818 214.530109,312.25 C214.17026,312.443182 213.763063,312.539773 213.308518,312.539773 Z M213.308518,318.204545 C212.755488,318.204545 212.267798,318.105114 211.84545,317.90625 C211.423101,317.707386 211.09545,317.433712 210.862495,317.085227 C210.629541,316.736742 210.513063,316.337121 210.513063,315.886364 C210.513063,315.420455 210.635223,315.004735 210.879541,314.639205 C211.123859,314.273674 211.457192,313.983902 211.879541,313.769886 C212.301889,313.555871 212.778215,313.448864 213.308518,313.448864 C213.838821,313.448864 214.3142,313.555871 214.734654,313.769886 C215.155109,313.983902 215.488442,314.273674 215.734654,314.639205 C215.980867,315.004735 216.103973,315.420455 216.103973,315.886364 C216.103973,316.337121 215.985601,316.736742 215.748859,317.085227 C215.512117,317.433712 215.184465,317.707386 214.765904,317.90625 C214.347344,318.105114 213.861548,318.204545 213.308518,318.204545 Z M225.249811,319 L225.249811,309.607955 L225.34072,309.607955 L229.266856,319 L230.232765,319 L234.158901,309.607955 L234.249811,309.607955 L234.249811,319 L235.249811,319 L235.249811,307.363636 L234.022538,307.363636 L229.800947,317.5 L229.698674,317.5 L225.477083,307.363636 L224.249811,307.363636 L224.249811,319 L225.249811,319 Z M241.65891,319.181818 C242.242243,319.181818 242.758342,319.088068 243.207205,318.900568 C243.656069,318.713068 244.031069,318.464015 244.332205,318.153409 C244.633342,317.842803 244.850198,317.503788 244.982773,317.136364 L244.982773,317.136364 L244.022546,316.823864 C243.912698,317.085227 243.750766,317.324811 243.536751,317.542614 C243.322736,317.760417 243.059478,317.933712 242.746978,318.0625 C242.434478,318.191288 242.071789,318.255682 241.65891,318.255682 C241.052849,318.255682 240.528228,318.113636 240.085046,317.829545 C239.641864,317.545455 239.300008,317.144886 239.059478,316.627841 C238.818948,316.110795 238.698682,315.505682 238.698682,314.8125 L238.701,314.938 L245.198682,314.9375 L245.198682,314.4375 C245.198682,313.706439 245.09641,313.072917 244.891864,312.536932 C244.687319,312.000947 244.409857,311.555871 244.059478,311.201705 C243.709099,310.847538 243.314213,310.58428 242.874819,310.411932 C242.435425,310.239583 241.978986,310.153409 241.505501,310.153409 C240.751713,310.153409 240.087887,310.347538 239.514023,310.735795 C238.94016,311.124053 238.491296,311.660038 238.167432,312.34375 C237.843569,313.027462 237.681637,313.808712 237.681637,314.6875 C237.681637,315.570076 237.843569,316.349432 238.167432,317.025568 C238.491296,317.701705 238.950576,318.230114 239.545273,318.610795 C240.13997,318.991477 240.844516,319.181818 241.65891,319.181818 Z M238.707437,314.034439 C238.739209,313.552064 238.856556,313.103084 239.059478,312.6875 C239.29622,312.202652 239.624819,311.8125 240.045273,311.517045 C240.465728,311.221591 240.95247,311.073864 241.505501,311.073864 C242.028228,311.073864 242.489402,311.204545 242.889023,311.465909 C243.288645,311.727273 243.601145,312.082386 243.826523,312.53125 C244.051902,312.980114 244.164592,313.484848 244.164592,314.045455 L244.164592,314.045455 L238.707,314.046 L238.707437,314.034439 Z M250.168381,319.181818 C250.808533,319.181818 251.37198,319.072917 251.858722,318.855114 C252.345465,318.637311 252.725199,318.337121 252.997927,317.954545 C253.270654,317.57197 253.407018,317.13447 253.407018,316.642045 C253.407018,316.058712 253.224253,315.573864 252.858722,315.1875 C252.493192,314.801136 251.944896,314.518939 251.213836,314.340909 L251.213836,314.340909 L249.895654,314.017045 C249.353987,313.880682 248.953419,313.696023 248.693949,313.463068 C248.43448,313.230114 248.304745,312.926136 248.304745,312.551136 C248.304745,312.107955 248.494139,311.746212 248.872927,311.465909 C249.251715,311.185606 249.736563,311.045455 250.327472,311.045455 C250.918381,311.045455 251.370086,311.180871 251.682586,311.451705 C251.995086,311.722538 252.219518,312.054924 252.355881,312.448864 L252.355881,312.448864 L253.282018,312.1875 C253.069896,311.554924 252.724253,311.057765 252.245086,310.696023 C251.765919,310.33428 251.126715,310.153409 250.327472,310.153409 C249.740351,310.153409 249.217624,310.257576 248.75929,310.465909 C248.300957,310.674242 247.941109,310.961174 247.679745,311.326705 C247.418381,311.692235 247.287699,312.11553 247.287699,312.596591 C247.287699,313.179924 247.469518,313.668561 247.833154,314.0625 C248.19679,314.456439 248.757396,314.744318 249.514972,314.926136 L249.514972,314.926136 L250.941109,315.267045 C251.888078,315.494318 252.361563,315.967803 252.361563,316.6875 C252.361563,317.142045 252.160806,317.519886 251.75929,317.821023 C251.357775,318.122159 250.82179,318.272727 250.151336,318.272727 C249.552851,318.272727 249.070843,318.140152 248.705313,317.875 C248.339783,317.609848 248.094518,317.217803 247.969518,316.698864 L247.969518,316.698864 L246.997927,316.9375 C247.15323,317.664773 247.507396,318.220644 248.060427,318.605114 C248.613457,318.989583 249.316109,319.181818 250.168381,319.181818 Z M258.372936,319.181818 C259.013088,319.181818 259.576535,319.072917 260.063277,318.855114 C260.55002,318.637311 260.929755,318.337121 261.202482,317.954545 C261.475209,317.57197 261.611573,317.13447 261.611573,316.642045 C261.611573,316.058712 261.428808,315.573864 261.063277,315.1875 C260.697747,314.801136 260.149452,314.518939 259.418391,314.340909 L259.418391,314.340909 L258.100209,314.017045 C257.558543,313.880682 257.157974,313.696023 256.898505,313.463068 C256.639035,313.230114 256.5093,312.926136 256.5093,312.551136 C256.5093,312.107955 256.698694,311.746212 257.077482,311.465909 C257.45627,311.185606 257.941118,311.045455 258.532027,311.045455 C259.122936,311.045455 259.574641,311.180871 259.887141,311.451705 C260.199641,311.722538 260.424073,312.054924 260.560436,312.448864 L260.560436,312.448864 L261.486573,312.1875 C261.274452,311.554924 260.928808,311.057765 260.449641,310.696023 C259.970474,310.33428 259.33127,310.153409 258.532027,310.153409 C257.944906,310.153409 257.422179,310.257576 256.963846,310.465909 C256.505512,310.674242 256.145664,310.961174 255.8843,311.326705 C255.622936,311.692235 255.492255,312.11553 255.492255,312.596591 C255.492255,313.179924 255.674073,313.668561 256.037709,314.0625 C256.401346,314.456439 256.961952,314.744318 257.719527,314.926136 L257.719527,314.926136 L259.145664,315.267045 C260.092633,315.494318 260.566118,315.967803 260.566118,316.6875 C260.566118,317.142045 260.365361,317.519886 259.963846,317.821023 C259.56233,318.122159 259.026346,318.272727 258.355891,318.272727 C257.757406,318.272727 257.275399,318.140152 256.909868,317.875 C256.544338,317.609848 256.299073,317.217803 256.174073,316.698864 L256.174073,316.698864 L255.202482,316.9375 C255.357785,317.664773 255.711952,318.220644 256.264982,318.605114 C256.818012,318.989583 257.520664,319.181818 258.372936,319.181818 Z M266.264992,319.198864 C266.74984,319.198864 267.172189,319.121212 267.532037,318.965909 C267.891886,318.810606 268.191128,318.611742 268.429764,318.369318 C268.668401,318.126894 268.848325,317.876894 268.969537,317.619318 L268.969537,317.619318 L269.032037,317.619318 L269.032037,319 L270.043401,319 L270.043401,313.073864 C270.043401,312.49053 269.94681,312.008523 269.753628,311.627841 C269.560446,311.247159 269.308552,310.949811 268.997946,310.735795 C268.68734,310.52178 268.351166,310.371212 267.989423,310.284091 C267.627681,310.19697 267.280143,310.153409 266.94681,310.153409 C266.503628,310.153409 266.066128,310.216856 265.63431,310.34375 C265.202492,310.470644 264.81234,310.677083 264.463855,310.963068 C264.11537,311.249053 263.842643,311.630682 263.645673,312.107955 L263.645673,312.107955 L264.605901,312.454545 C264.764992,312.079545 265.042454,311.753788 265.438287,311.477273 C265.83412,311.200758 266.346431,311.0625 266.975219,311.0625 C267.638098,311.0625 268.14662,311.233902 268.500787,311.576705 C268.854954,311.919508 269.032037,312.388258 269.032037,312.982955 L269.032037,312.982955 L269.032037,313.1875 C269.032037,313.407197 268.943022,313.566288 268.764992,313.664773 C268.586961,313.763258 268.328439,313.835227 267.989423,313.880682 C267.650408,313.926136 267.236583,313.979167 266.747946,314.039773 C266.255522,314.100379 265.804764,314.185606 265.395673,314.295455 C264.986583,314.405303 264.632416,314.554924 264.333173,314.744318 C264.033931,314.933712 263.80287,315.176136 263.639992,315.471591 C263.477113,315.767045 263.395673,316.130682 263.395673,316.5625 C263.395673,317.123106 263.524461,317.599432 263.782037,317.991477 C264.039613,318.383523 264.386204,318.682765 264.82181,318.889205 C265.257416,319.095644 265.738476,319.198864 266.264992,319.198864 Z M266.401355,318.272727 C265.829386,318.272727 265.354007,318.127841 264.975219,317.838068 C264.596431,317.548295 264.407037,317.138258 264.407037,316.607955 C264.407037,316.255682 264.49984,315.966856 264.685446,315.741477 C264.871052,315.516098 265.138098,315.339015 265.486583,315.210227 C265.835067,315.081439 266.255522,314.986742 266.747946,314.926136 C266.929764,314.903409 267.13431,314.876894 267.361583,314.846591 C267.588855,314.816288 267.817075,314.779356 268.046242,314.735795 C268.275408,314.692235 268.47806,314.642045 268.654196,314.585227 C268.830333,314.528409 268.95628,314.464015 269.032037,314.392045 L269.032037,314.392045 L269.032037,315.653409 C269.032037,316.130682 268.92503,316.567235 268.711014,316.963068 C268.496999,317.358902 268.193022,317.676136 267.799083,317.914773 C267.405143,318.153409 266.939234,318.272727 266.401355,318.272727 Z M276.05856,322.454545 C276.747954,322.454545 277.363484,322.339962 277.905151,322.110795 C278.446817,321.881629 278.874848,321.528409 279.189241,321.051136 C279.503635,320.573864 279.660832,319.965909 279.660832,319.227273 L279.660832,319.227273 L279.660832,310.272727 L278.672196,310.272727 L278.672196,311.9375 L278.569923,311.9375 C278.448711,311.676136 278.281098,311.407197 278.067082,311.130682 C277.853067,310.854167 277.569923,310.622159 277.217651,310.434659 C276.865378,310.247159 276.422196,310.153409 275.888105,310.153409 C275.168408,310.153409 274.537726,310.340909 273.99606,310.715909 C273.454393,311.090909 273.032991,311.613636 272.731855,312.284091 C272.430719,312.954545 272.280151,313.731061 272.280151,314.613636 C272.280151,315.503788 272.434507,316.269886 272.743219,316.911932 C273.051931,317.553977 273.476173,318.047348 274.015946,318.392045 C274.555719,318.736742 275.17409,318.909091 275.87106,318.909091 C276.393787,318.909091 276.832234,318.82197 277.186401,318.647727 C277.540567,318.473485 277.827499,318.254735 278.047196,317.991477 C278.266893,317.72822 278.435454,317.464015 278.552878,317.198864 L278.552878,317.198864 L278.643787,317.198864 L278.643787,319.164773 C278.643787,319.979167 278.406098,320.579545 277.930719,320.965909 C277.45534,321.352273 276.831287,321.545455 276.05856,321.545455 C275.562348,321.545455 275.144734,321.475379 274.805719,321.335227 C274.466704,321.195076 274.192082,321.018939 273.981855,320.806818 C273.771628,320.594697 273.604014,320.378788 273.479014,320.159091 L273.479014,320.159091 L272.649469,320.704545 C272.819923,321.034091 273.05856,321.331439 273.365378,321.596591 C273.672196,321.861742 274.04909,322.071023 274.49606,322.224432 C274.943029,322.377841 275.463863,322.454545 276.05856,322.454545 Z M275.990378,317.982955 C275.41462,317.982955 274.925984,317.839962 274.524469,317.553977 C274.122954,317.267992 273.818029,316.870265 273.609696,316.360795 C273.401363,315.851326 273.297196,315.263258 273.297196,314.596591 C273.297196,313.941288 273.399469,313.347538 273.604014,312.815341 C273.80856,312.283144 274.11159,311.859848 274.513105,311.545455 C274.91462,311.231061 275.407044,311.073864 275.990378,311.073864 C276.562348,311.073864 277.046249,311.226326 277.442082,311.53125 C277.837916,311.836174 278.139999,312.252841 278.348332,312.78125 C278.556666,313.309659 278.660832,313.914773 278.660832,314.596591 C278.660832,315.649621 278.425984,316.477273 277.956287,317.079545 C277.48659,317.681818 276.831287,317.982955 275.990378,317.982955 Z M285.871068,319.181818 C286.454401,319.181818 286.9705,319.088068 287.419363,318.900568 C287.868227,318.713068 288.243227,318.464015 288.544363,318.153409 C288.8455,317.842803 289.062356,317.503788 289.194932,317.136364 L289.194932,317.136364 L288.234704,316.823864 C288.124856,317.085227 287.962924,317.324811 287.748909,317.542614 C287.534894,317.760417 287.271636,317.933712 286.959136,318.0625 C286.646636,318.191288 286.283947,318.255682 285.871068,318.255682 C285.265007,318.255682 284.740386,318.113636 284.297204,317.829545 C283.854023,317.545455 283.512166,317.144886 283.271636,316.627841 C283.031106,316.110795 282.910841,315.505682 282.910841,314.8125 L282.913,314.938 L289.410841,314.9375 L289.410841,314.4375 C289.410841,313.706439 289.308568,313.072917 289.104023,312.536932 C288.899477,312.000947 288.622015,311.555871 288.271636,311.201705 C287.921257,310.847538 287.526371,310.58428 287.086977,310.411932 C286.647583,310.239583 286.191144,310.153409 285.717659,310.153409 C284.963871,310.153409 284.300045,310.347538 283.726182,310.735795 C283.152318,311.124053 282.703454,311.660038 282.379591,312.34375 C282.055727,313.027462 281.893795,313.808712 281.893795,314.6875 C281.893795,315.570076 282.055727,316.349432 282.379591,317.025568 C282.703454,317.701705 283.162735,318.230114 283.757432,318.610795 C284.352129,318.991477 285.056674,319.181818 285.871068,319.181818 Z M282.919595,314.034439 C282.951367,313.552064 283.068714,313.103084 283.271636,312.6875 C283.508379,312.202652 283.836977,311.8125 284.257432,311.517045 C284.677886,311.221591 285.164629,311.073864 285.717659,311.073864 C286.240386,311.073864 286.70156,311.204545 287.101182,311.465909 C287.500803,311.727273 287.813303,312.082386 288.038682,312.53125 C288.26406,312.980114 288.37675,313.484848 288.37675,314.045455 L288.37675,314.045455 L282.919,314.046 L282.919595,314.034439 Z M294.38054,319.181818 C295.020691,319.181818 295.584138,319.072917 296.07088,318.855114 C296.557623,318.637311 296.937358,318.337121 297.210085,317.954545 C297.482812,317.57197 297.619176,317.13447 297.619176,316.642045 C297.619176,316.058712 297.436411,315.573864 297.07088,315.1875 C296.70535,314.801136 296.157055,314.518939 295.425994,314.340909 L295.425994,314.340909 L294.107812,314.017045 C293.566146,313.880682 293.165577,313.696023 292.906108,313.463068 C292.646638,313.230114 292.516903,312.926136 292.516903,312.551136 C292.516903,312.107955 292.706297,311.746212 293.085085,311.465909 C293.463873,311.185606 293.948721,311.045455 294.53963,311.045455 C295.13054,311.045455 295.582244,311.180871 295.894744,311.451705 C296.207244,311.722538 296.431676,312.054924 296.56804,312.448864 L296.56804,312.448864 L297.494176,312.1875 C297.282055,311.554924 296.936411,311.057765 296.457244,310.696023 C295.978077,310.33428 295.338873,310.153409 294.53963,310.153409 C293.952509,310.153409 293.429782,310.257576 292.971449,310.465909 C292.513115,310.674242 292.153267,310.961174 291.891903,311.326705 C291.63054,311.692235 291.499858,312.11553 291.499858,312.596591 C291.499858,313.179924 291.681676,313.668561 292.045312,314.0625 C292.408949,314.456439 292.969555,314.744318 293.72713,314.926136 L293.72713,314.926136 L295.153267,315.267045 C296.100236,315.494318 296.573721,315.967803 296.573721,316.6875 C296.573721,317.142045 296.372964,317.519886 295.971449,317.821023 C295.569933,318.122159 295.033949,318.272727 294.363494,318.272727 C293.765009,318.272727 293.283002,318.140152 292.917471,317.875 C292.551941,317.609848 292.306676,317.217803 292.181676,316.698864 L292.181676,316.698864 L291.210085,316.9375 C291.365388,317.664773 291.719555,318.220644 292.272585,318.605114 C292.825615,318.989583 293.528267,319.181818 294.38054,319.181818 Z" id="path-13"></path>
        <path d="M118.361409,398.5 L118.361409,397.545455 L112.605727,397.545455 L112.605727,397.471591 L115.492091,394.25 C116.13603,393.537879 116.639818,392.935606 117.003455,392.443182 C117.367091,391.950758 117.62372,391.503788 117.773341,391.102273 C117.922962,390.700758 117.997773,390.285985 117.997773,389.857955 C117.997773,389.267045 117.853833,388.732955 117.565955,388.255682 C117.278076,387.778409 116.882242,387.400568 116.378455,387.122159 C115.874667,386.84375 115.298909,386.704545 114.651182,386.704545 C113.995879,386.704545 113.409705,386.846591 112.892659,387.130682 C112.375614,387.414773 111.968417,387.805871 111.671068,388.303977 C111.37372,388.802083 111.225045,389.373106 111.225045,390.017045 L111.225045,390.017045 L112.242091,390.017045 C112.242091,389.554924 112.340576,389.145833 112.537545,388.789773 C112.734515,388.433712 113.011977,388.153409 113.369932,387.948864 C113.727886,387.744318 114.1455,387.642045 114.622773,387.642045 C115.07353,387.642045 115.478833,387.734848 115.838682,387.920455 C116.19853,388.106061 116.481674,388.364583 116.688114,388.696023 C116.894553,389.027462 116.997773,389.414773 116.997773,389.857955 C116.997773,390.221591 116.928644,390.57197 116.790386,390.909091 C116.652129,391.246212 116.431485,391.613636 116.128455,392.011364 C115.825424,392.409091 115.425803,392.888258 114.929591,393.448864 L114.929591,393.448864 L111.128455,397.721591 L111.128455,398.5 L118.361409,398.5 Z M124.507237,398.659091 C125.325419,398.659091 126.023336,398.423295 126.600987,397.951705 C127.178639,397.480114 127.621821,396.797348 127.930533,395.903409 C128.239245,395.00947 128.393601,393.935606 128.393601,392.681818 C128.393601,391.431818 128.239245,390.360795 127.930533,389.46875 C127.621821,388.576705 127.176745,387.892992 126.595306,387.417614 C126.013866,386.942235 125.317843,386.704545 124.507237,386.704545 C123.696631,386.704545 123.000609,386.942235 122.419169,387.417614 C121.83773,387.892992 121.392654,388.576705 121.083942,389.46875 C120.77523,390.360795 120.620874,391.431818 120.620874,392.681818 C120.620874,393.935606 120.77523,395.00947 121.083942,395.903409 C121.392654,396.797348 121.835836,397.480114 122.413487,397.951705 C122.991139,398.423295 123.689056,398.659091 124.507237,398.659091 Z M124.507237,397.704545 C123.613298,397.704545 122.913487,397.266098 122.407806,396.389205 C121.902124,395.512311 121.649283,394.276515 121.649283,392.681818 C121.649283,391.090909 121.903071,389.85322 122.410646,388.96875 C122.918222,388.08428 123.617086,387.642045 124.507237,387.642045 C125.397389,387.642045 126.096252,388.08428 126.603828,388.96875 C127.111404,389.85322 127.365192,391.090909 127.365192,392.681818 C127.365192,394.276515 127.113298,395.512311 126.60951,396.389205 C126.105722,397.266098 125.404965,397.704545 124.507237,397.704545 Z M137.944748,398.5 L137.944748,397.545455 L132.189067,397.545455 L132.189067,397.471591 L135.07543,394.25 C135.71937,393.537879 136.223158,392.935606 136.586794,392.443182 C136.95043,391.950758 137.207059,391.503788 137.35668,391.102273 C137.506301,390.700758 137.581112,390.285985 137.581112,389.857955 C137.581112,389.267045 137.437173,388.732955 137.149294,388.255682 C136.861415,387.778409 136.465582,387.400568 135.961794,387.122159 C135.458006,386.84375 134.882248,386.704545 134.234521,386.704545 C133.579218,386.704545 132.993044,386.846591 132.475998,387.130682 C131.958953,387.414773 131.551756,387.805871 131.254408,388.303977 C130.957059,388.802083 130.808385,389.373106 130.808385,390.017045 L130.808385,390.017045 L131.82543,390.017045 C131.82543,389.554924 131.923915,389.145833 132.120885,388.789773 C132.317854,388.433712 132.595317,388.153409 132.953271,387.948864 C133.311226,387.744318 133.728839,387.642045 134.206112,387.642045 C134.65687,387.642045 135.062173,387.734848 135.422021,387.920455 C135.78187,388.106061 136.065014,388.364583 136.271453,388.696023 C136.477892,389.027462 136.581112,389.414773 136.581112,389.857955 C136.581112,390.221591 136.511983,390.57197 136.373726,390.909091 C136.235468,391.246212 136.014824,391.613636 135.711794,392.011364 C135.408764,392.409091 135.009142,392.888258 134.51293,393.448864 L134.51293,393.448864 L130.711794,397.721591 L130.711794,398.5 L137.944748,398.5 Z M144.090577,398.659091 C144.908759,398.659091 145.606675,398.423295 146.184327,397.951705 C146.761978,397.480114 147.20516,396.797348 147.513872,395.903409 C147.822584,395.00947 147.97694,393.935606 147.97694,392.681818 C147.97694,391.431818 147.822584,390.360795 147.513872,389.46875 C147.20516,388.576705 146.760084,387.892992 146.178645,387.417614 C145.597205,386.942235 144.901183,386.704545 144.090577,386.704545 C143.279971,386.704545 142.583948,386.942235 142.002509,387.417614 C141.421069,387.892992 140.975993,388.576705 140.667281,389.46875 C140.358569,390.360795 140.204213,391.431818 140.204213,392.681818 C140.204213,393.935606 140.358569,395.00947 140.667281,395.903409 C140.975993,396.797348 141.419175,397.480114 141.996827,397.951705 C142.574478,398.423295 143.272395,398.659091 144.090577,398.659091 Z M144.090577,397.704545 C143.196637,397.704545 142.496827,397.266098 141.991145,396.389205 C141.485463,395.512311 141.232622,394.276515 141.232622,392.681818 C141.232622,391.090909 141.48641,389.85322 141.993986,388.96875 C142.501562,388.08428 143.200425,387.642045 144.090577,387.642045 C144.980728,387.642045 145.679592,388.08428 146.187168,388.96875 C146.694743,389.85322 146.948531,391.090909 146.948531,392.681818 C146.948531,394.276515 146.696637,395.512311 146.192849,396.389205 C145.689062,397.266098 144.988304,397.704545 144.090577,397.704545 Z" id="path-14"></path>
        <path d="M43.0584091,398.5 L43.0584091,397.545455 L37.3027273,397.545455 L37.3027273,397.471591 L40.1890909,394.25 C40.8330303,393.537879 41.3368182,392.935606 41.7004545,392.443182 C42.0640909,391.950758 42.3207197,391.503788 42.4703409,391.102273 C42.6199621,390.700758 42.6947727,390.285985 42.6947727,389.857955 C42.6947727,389.267045 42.5508333,388.732955 42.2629545,388.255682 C41.9750758,387.778409 41.5792424,387.400568 41.0754545,387.122159 C40.5716667,386.84375 39.9959091,386.704545 39.3481818,386.704545 C38.6928788,386.704545 38.1067045,386.846591 37.5896591,387.130682 C37.0726136,387.414773 36.6654167,387.805871 36.3680682,388.303977 C36.0707197,388.802083 35.9220455,389.373106 35.9220455,390.017045 L35.9220455,390.017045 L36.9390909,390.017045 C36.9390909,389.554924 37.0375758,389.145833 37.2345455,388.789773 C37.4315152,388.433712 37.7089773,388.153409 38.0669318,387.948864 C38.4248864,387.744318 38.8425,387.642045 39.3197727,387.642045 C39.7705303,387.642045 40.1758333,387.734848 40.5356818,387.920455 C40.8955303,388.106061 41.1786742,388.364583 41.3851136,388.696023 C41.591553,389.027462 41.6947727,389.414773 41.6947727,389.857955 C41.6947727,390.221591 41.6256439,390.57197 41.4873864,390.909091 C41.3491288,391.246212 41.1284848,391.613636 40.8254545,392.011364 C40.5224242,392.409091 40.122803,392.888258 39.6265909,393.448864 L39.6265909,393.448864 L35.8254545,397.721591 L35.8254545,398.5 L43.0584091,398.5 Z M49.2042373,398.659091 C50.0224192,398.659091 50.7203358,398.423295 51.2979873,397.951705 C51.8756389,397.480114 52.3188207,396.797348 52.6275328,395.903409 C52.9362449,395.00947 53.090601,393.935606 53.090601,392.681818 C53.090601,391.431818 52.9362449,390.360795 52.6275328,389.46875 C52.3188207,388.576705 51.8737449,387.892992 51.2923055,387.417614 C50.7108661,386.942235 50.0148434,386.704545 49.2042373,386.704545 C48.3936313,386.704545 47.6976086,386.942235 47.1161692,387.417614 C46.5347298,387.892992 46.089654,388.576705 45.7809419,389.46875 C45.4722298,390.360795 45.3178737,391.431818 45.3178737,392.681818 C45.3178737,393.935606 45.4722298,395.00947 45.7809419,395.903409 C46.089654,396.797348 46.5328358,397.480114 47.1104873,397.951705 C47.6881389,398.423295 48.3860555,398.659091 49.2042373,398.659091 Z M49.2042373,397.704545 C48.3102979,397.704545 47.6104873,397.266098 47.1048055,396.389205 C46.5991237,395.512311 46.3462828,394.276515 46.3462828,392.681818 C46.3462828,391.090909 46.6000707,389.85322 47.1076464,388.96875 C47.6152222,388.08428 48.3140858,387.642045 49.2042373,387.642045 C50.0943889,387.642045 50.7932525,388.08428 51.3008282,388.96875 C51.808404,389.85322 52.0621919,391.090909 52.0621919,392.681818 C52.0621919,394.276515 51.8102979,395.512311 51.3065101,396.389205 C50.8027222,397.266098 50.1019646,397.704545 49.2042373,397.704545 Z M58.999703,398.5 L58.999703,386.863636 L57.8917484,386.863636 L55.1417484,388.6875 L55.1417484,389.789773 L57.8690212,387.977273 L57.937203,387.977273 L57.937203,398.5 L58.999703,398.5 Z M65.8785094,398.659091 C66.5489639,398.659091 67.1351381,398.500947 67.6370321,398.184659 C68.138926,397.868371 68.5555927,397.421402 68.8870321,396.84375 C69.2184715,396.266098 69.4675245,395.581439 69.6341912,394.789773 C69.8008578,393.998106 69.8841912,393.126894 69.8841912,392.176136 C69.8841912,391.153409 69.7762366,390.291667 69.5603275,389.590909 C69.3444184,388.890152 69.0527518,388.327652 68.6853275,387.903409 C68.3179033,387.479167 67.9059715,387.170455 67.4495321,386.977273 C66.9930927,386.784091 66.5224487,386.685606 66.0376003,386.681757 C65.295176,386.67803 64.6483957,386.849432 64.0972594,387.196023 C63.546123,387.542614 63.1180927,388.006629 62.8131684,388.588068 C62.5082442,389.169508 62.3557821,389.806818 62.3557821,390.5 C62.3557821,391.231061 62.5167669,391.881629 62.8387366,392.451705 C63.1607063,393.02178 63.5906306,393.470644 64.1285094,393.798295 C64.6663881,394.125947 65.2591912,394.289773 65.9069184,394.289773 C66.3235851,394.289773 66.7194184,394.21875 67.0944184,394.076705 C67.4694184,393.934659 67.8036987,393.736742 68.0972594,393.482955 C68.39082,393.229167 68.6285094,392.931818 68.8103275,392.590909 L68.8103275,392.590909 L68.8841912,392.590909 C68.8841912,394.227273 68.6209336,395.488636 68.0944184,396.375 C67.5679033,397.261364 66.8292669,397.704545 65.8785094,397.704545 C65.2156306,397.704545 64.6843806,397.503788 64.2847594,397.102273 C63.8851381,396.700758 63.6341912,396.189394 63.5319184,395.568182 L63.5319184,395.568182 L62.4864639,395.568182 C62.5584336,396.17803 62.7440397,396.714962 63.0432821,397.178977 C63.3425245,397.642992 63.733623,398.005682 64.2165775,398.267045 C64.6995321,398.528409 65.2535094,398.659091 65.8785094,398.659091 Z M66.0376003,393.335227 C65.5338124,393.335227 65.0821078,393.20928 64.6824866,392.957386 C64.2828654,392.705492 63.9665775,392.364583 63.733623,391.934659 C63.5006684,391.504735 63.3841912,391.026515 63.3841912,390.5 C63.3841912,389.973485 63.5006684,389.493371 63.733623,389.059659 C63.9665775,388.625947 64.2828654,388.280303 64.6824866,388.022727 C65.0821078,387.765152 65.5338124,387.636364 66.0376003,387.636364 C66.5186609,387.636364 66.951426,387.757576 67.3358957,388 C67.7203654,388.242424 68.0309715,388.574811 68.2677139,388.997159 C68.5044563,389.419508 68.6455548,389.897727 68.6910094,390.431818 C68.7288881,390.943182 68.6322972,391.419508 68.4012366,391.860795 C68.170176,392.302083 67.8472594,392.658144 67.4324866,392.928977 C67.0177139,393.199811 66.5527518,393.335227 66.0376003,393.335227 Z" id="path-15"></path>
    </defs>
    <g id="designs" stroke="none" stroke-width="1" fill="none" fill-rule="evenodd">
        <g id="working-together-2" transform="translate(-125.000000, -741.000000)">
            <g id="figure-5@1x" transform="translate(125.000000, 742.000000)">
                <g id="Group" transform="translate(139.000000, 603.000000) rotate(90.000000) translate(-139.000000, -603.000000) translate(-464.000000, 464.000000)">
                    <g fill-rule="nonzero" id="Path">
                        <polygon fill-opacity="0.7" fill="#FFFFFF" points="245.811 263.126 245.811 0.126 477.813 0.126 477.813 263.126"></polygon>
                        <polygon fill="#000000" points="0.553 276.756 0.553 258.224 3.867 257.413 7.182 255.677 10.496 252.859 13.81 248.863 17.125 243.743 20.439 237.71 23.753 231.065 27.067 224.088 30.382 216.953 33.696 209.724 40.325 195.123 43.639 187.985 46.953 181.241 50.268 175.115 53.582 169.757 56.896 165.216 60.211 161.469 63.525 158.454 66.839 156.113 70.153 154.399 73.468 153.274 76.782 152.688 80.096 152.568 83.411 152.806 86.725 153.252 90.039 153.731 93.354 154.068 96.668 154.129 99.982 153.861 103.296 153.31 109.925 151.89 113.239 151.29 116.554 150.826 119.868 150.432 123.182 150.002 126.497 149.475 129.811 148.89 133.125 148.392 136.44 148.188 139.754 148.46 143.068 149.298 146.382 150.673 149.697 152.448 153.011 154.427 156.325 156.416 159.64 158.275 162.954 159.935 166.268 161.382 169.583 162.615 172.897 163.598 176.211 164.245 179.526 164.444 182.84 164.109 186.154 163.222 189.468 161.846 192.783 160.112 196.097 158.175 199.411 156.185 202.726 154.263 206.04 152.488 209.354 150.889 212.669 149.449 215.983 148.116 219.297 146.831 225.926 144.275 229.24 143.01 232.554 141.77 235.869 140.536 239.183 139.247 242.497 137.809 245.812 136.132 249.126 134.167 252.44 131.943 255.755 129.576 259.069 127.252 262.383 125.177 265.697 123.523 269.012 122.38 272.326 121.733 275.64 121.463 278.955 121.385 282.269 121.285 285.583 120.977 288.898 120.333 292.212 119.302 295.526 117.905 298.841 116.23 302.155 114.412 305.469 112.636 308.783 111.119 312.098 110.09 315.412 109.756 318.726 110.253 322.041 111.617 325.355 113.773 328.669 116.565 331.984 119.818 335.298 123.385 338.612 127.157 341.926 131.035 345.241 134.868 348.555 138.42 351.869 141.37 355.184 143.358 358.498 144.063 361.812 143.292 365.127 141.044 368.441 137.543 371.755 133.207 375.07 128.567 378.384 124.16 381.698 120.433 385.012 117.685 388.327 116.051 391.641 115.515 394.955 115.932 398.27 117.078 401.584 118.709 404.898 120.61 408.213 122.643 411.527 124.742 414.841 126.9 418.156 129.135 421.47 131.463 424.784 133.873 428.098 136.306 431.413 138.652 434.727 140.773 438.041 142.545 441.356 143.904 444.67 144.866 447.984 145.518 451.299 145.976 454.613 146.345 457.927 146.686 461.242 147.011 464.556 147.292 467.87 147.471 471.184 147.478 474.499 147.244 477.813 146.723 481.127 145.919 484.442 144.899 487.756 143.806 491.07 142.831 494.385 142.171 497.699 141.975 501.013 142.294 504.327 143.073 507.642 144.174 510.956 145.436 517.585 148.044 520.899 149.378 524.213 150.805 527.528 152.368 530.842 154.047 534.156 155.762 537.471 157.397 540.785 158.835 544.099 159.988 547.413 160.807 550.728 161.275 554.042 161.389 557.356 161.15 560.671 160.563 563.985 159.643 567.299 158.432 570.614 157.007 573.928 155.466 577.242 153.896 580.557 152.336 583.871 150.76 587.185 149.105 590.499 147.324 593.814 145.448 597.128 143.611 600.442 142.025 603.757 140.918 607.071 140.456 610.385 140.699 613.7 141.587 617.014 142.965 620.328 144.631 623.642 146.391 626.957 148.105 630.271 149.717 633.585 151.236 636.9 152.703 640.214 154.139 643.528 155.513 646.843 156.745 650.157 157.725 653.471 158.349 656.786 158.549 660.1 158.306 663.414 157.669 666.728 156.747 670.043 155.689 673.357 154.658 676.671 153.8 679.986 153.227 683.3 153.01 686.614 153.169 689.929 153.67 693.243 154.425 696.557 155.316 699.872 156.232 703.186 157.099 706.5 157.884 709.814 158.577 713.129 159.172 716.443 159.665 719.757 160.057 723.072 160.364 726.386 160.6 729.7 160.777 733.015 160.9 736.329 160.996 739.643 161.15 742.957 161.515 746.272 162.29 749.586 163.671 752.9 165.777 756.215 168.613 759.529 172.059 762.843 175.917 766.158 179.973 769.472 184.069 772.786 188.123 776.101 192.112 779.415 196.014 782.729 199.753 786.043 203.168 789.358 206.037 792.672 208.118 795.986 209.211 799.301 209.207 802.615 208.106 805.929 206.01 809.244 203.088 812.558 199.527 815.872 195.477 819.187 191.04 822.501 186.287 825.815 181.311 829.129 176.263 832.444 171.347 835.758 166.761 839.072 162.637 842.387 158.998 845.701 155.782 849.015 152.899 852.33 150.294 855.644 147.969 858.958 145.975 862.273 144.362 865.587 143.136 868.901 142.239 872.215 141.557 875.53 140.951 878.844 140.29 882.158 139.477 885.473 138.446 888.787 137.164 892.101 135.62 895.416 133.825 898.73 131.812 902.044 129.64 908.673 125.127 911.987 122.948 915.301 120.913 918.616 119.084 921.93 117.53 925.244 116.348 928.559 115.661 931.873 115.599 935.187 116.259 938.502 117.671 941.816 119.78 945.13 122.471 948.444 125.592 951.759 128.986 955.073 132.503 958.387 136.006 961.702 139.358 965.016 142.421 968.33 145.057 971.645 147.15 974.959 148.642 978.273 149.573 981.588 150.087 984.902 150.399 988.216 150.739 991.53 151.284 994.845 152.132 998.159 153.294 1001.473 154.728 1004.788 156.372 1008.102 158.164 1011.416 160.047 1014.731 161.971 1018.045 163.879 1021.359 165.713 1024.673 167.404 1027.988 168.875 1031.302 170.037 1034.616 170.795 1037.931 171.055 1041.245 170.735 1044.559 169.78 1047.874 168.177 1051.188 165.974 1054.502 163.29 1057.817 160.305 1061.131 157.229 1064.445 154.257 1067.759 151.531 1071.074 149.127 1074.388 147.08 1077.702 145.413 1081.017 144.162 1084.331 143.369 1087.645 143.066 1090.96 143.249 1094.274 143.871 1097.588 144.848 1100.903 146.079 1104.217 147.474 1107.531 148.985 1110.845 150.625 1114.16 152.467 1117.474 154.589 1120.788 157.013 1124.103 159.64 1127.417 162.241 1130.731 164.527 1134.046 166.246 1137.36 167.294 1140.674 167.761 1143.989 167.905 1147.303 168.065 1150.617 168.547 1153.931 169.536 1157.246 171.049 1160.56 172.986 1163.874 175.221 1167.189 177.718 1170.503 180.574 1173.817 183.991 1177.132 188.158 1180.446 193.144 1183.76 198.841 1187.074 204.978 1190.389 211.181 1193.703 217.016 1197.017 222.012 1200.332 225.694 1203.646 227.655 1203.646 276.756 3.867 276.756"></polygon>
                    </g>
                    <g stroke-linecap="square" transform="translate(0.000000, 55.000000)" id="Shape" stroke="#000000">
                        <path d="M99.982,221.756 L99.982,0.628 M291.982,221.756 L291.982,0.628"></path>
                        <path d="M196.097,221.756 L196.097,0.628 M388.097,221.756 L388.097,0.628"></path>
                        <path d="M500.722,221.756 L500.722,0.628 M600.442,221.756 L600.442,0.628 M703.187,221.756 L703.187,0.628 M805.929,221.756 L805.929,0.628 M905.358,221.756 L905.358,0.628 M1008.102,221.756 L1008.102,0.628 M1107.531,221.756 L1107.531,0.628"></path>
                        <path d="M0.553,221.756 L0.553,0.628 M1205.055,221.756 L1205.055,0.628" stroke-width="0.8"></path>
                    </g>
                    <polygon id="Path" fill="#3865E4" fill-rule="nonzero" points="0 277.843 0 258.265 3.329 257.888 6.657 256.957 9.986 255.207 13.315 252.415 16.644 248.516 19.972 243.646 23.301 238.094 26.63 232.182 29.959 226.142 33.287 220.056 36.616 213.894 39.945 207.625 43.273 201.331 46.602 195.248 49.931 189.703 53.26 185.001 56.588 181.309 59.917 178.607 63.246 176.723 66.575 175.412 69.903 174.44 73.232 173.639 76.561 172.927 79.89 172.302 83.218 171.809 86.547 171.497 89.876 171.368 93.204 171.347 96.533 171.283 99.862 170.989 103.191 170.308 106.519 169.168 109.848 167.608 113.177 165.771 116.506 163.866 119.834 162.12 123.163 160.719 126.492 159.771 129.82 159.284 133.149 159.183 136.478 159.364 139.807 159.755 143.135 160.359 146.464 161.264 149.793 162.599 153.122 164.468 156.45 166.884 159.779 169.722 163.108 172.727 166.436 175.568 169.765 177.938 173.094 179.649 176.423 180.689 179.751 181.199 183.08 181.394 186.409 181.454 189.738 181.459 193.066 181.378 196.395 181.116 199.724 180.578 203.052 179.732 206.381 178.638 209.71 177.432 213.039 176.278 216.367 175.305 219.696 174.551 223.025 173.946 226.354 173.351 229.682 172.619 233.011 171.668 236.34 170.51 239.669 169.234 242.997 167.965 246.326 166.814 249.655 165.857 252.983 165.133 256.312 164.675 259.641 164.528 262.97 164.754 266.298 165.415 269.627 166.528 272.956 168.046 276.285 169.843 279.613 171.739 282.942 173.551 286.271 175.129 289.599 176.384 292.928 177.29 296.257 177.853 299.586 178.097 302.914 178.042 306.243 177.704 309.572 177.113 312.901 176.32 316.229 175.403 319.558 174.455 322.887 173.565 326.215 172.804 329.544 172.219 332.873 171.854 336.202 171.769 339.53 172.063 342.859 172.846 346.188 174.192 349.517 176.058 352.845 178.245 356.174 180.412 359.503 182.175 362.831 183.227 366.16 183.447 369.489 182.929 372.818 181.928 376.146 180.766 379.475 179.717 382.804 178.939 386.133 178.444 392.79 177.805 396.119 177.316 399.448 176.554 402.776 175.526 406.105 174.331 409.434 173.117 412.762 172.008 416.091 171.066 419.42 170.272 422.749 169.552 426.077 168.809 429.406 167.947 432.735 166.897 436.064 165.632 439.392 164.174 442.721 162.604 446.05 161.041 449.378 159.608 452.707 158.4 456.036 157.458 459.365 156.775 462.693 156.312 466.022 156.023 469.351 155.85 472.68 155.719 476.008 155.523 479.337 155.126 482.666 154.41 485.994 153.337 489.323 152.013 492.652 150.701 495.981 149.785 499.309 149.676 502.638 150.704 505.967 153.014 509.296 156.49 512.624 160.748 515.953 165.208 519.282 169.235 522.61 172.304 525.939 174.128 529.268 174.694 532.597 174.207 535.925 172.986 539.254 171.332 542.583 169.431 545.912 167.322 549.24 164.924 552.569 162.134 555.898 158.941 559.227 155.503 562.555 152.161 565.884 149.352 569.213 147.488 572.541 146.825 575.87 147.397 579.199 149.022 582.528 151.371 589.185 156.756 592.514 159.211 595.843 161.294 599.171 162.963 602.5 164.237 605.829 165.169 609.157 165.836 612.486 166.337 615.815 166.786 619.144 167.289 622.472 167.914 625.801 168.653 629.13 169.412 632.459 170.022 635.787 170.294 639.116 170.08 642.445 169.329 645.773 168.095 649.102 166.513 652.431 164.737 655.76 162.886 659.088 161.005 662.417 159.077 665.746 157.057 669.075 154.928 672.403 152.728 675.732 150.553 679.061 148.521 682.39 146.722 685.718 145.202 689.047 143.966 692.376 143.014 695.704 142.366 699.033 142.073 702.362 142.202 705.691 142.805 709.019 143.903 712.348 145.471 715.677 147.451 719.006 149.771 722.334 152.383 725.663 155.305 728.992 158.636 732.32 162.524 735.649 167.093 738.978 172.341 742.307 178.086 745.635 183.985 748.964 189.622 752.293 194.633 755.622 198.793 758.95 202.045 762.279 204.457 765.608 206.15 768.936 207.227 772.265 207.73 775.594 207.64 778.923 206.902 782.251 205.477 785.58 203.381 788.909 200.699 792.238 197.564 795.566 194.122 798.895 190.498 802.224 186.795 805.552 183.127 808.881 179.639 812.21 176.505 815.539 173.898 818.867 171.937 822.196 170.654 825.525 169.979 828.854 169.764 832.182 169.813 835.511 169.931 838.84 169.954 842.169 169.771 845.497 169.309 848.826 168.51 852.155 167.325 855.483 165.728 858.812 163.739 862.141 161.431 865.47 158.895 868.798 156.197 872.127 153.356 875.456 150.364 878.785 147.226 882.113 144.011 885.442 140.854 888.771 137.939 892.099 135.455 895.428 133.544 898.757 132.257 902.086 131.524 905.414 131.144 908.743 130.838 912.072 130.329 915.401 129.447 918.729 128.191 922.058 126.723 925.387 125.275 928.715 124.035 932.044 123.058 935.373 122.239 938.702 121.366 942.03 120.199 945.359 118.558 948.688 116.395 952.017 113.823 955.345 111.104 958.674 108.559 962.003 106.451 965.331 104.882 968.66 103.774 971.989 102.945 975.318 102.249 978.646 101.684 981.975 101.412 985.304 101.7 988.633 102.807 991.961 104.904 995.29 108.022 998.619 112.045 1001.948 116.726 1005.276 121.732 1008.605 126.714 1011.934 131.372 1015.262 135.502 1018.591 139 1021.92 141.825 1025.249 143.953 1028.577 145.343 1031.906 145.927 1035.235 145.63 1038.564 144.407 1041.892 142.292 1045.221 139.439 1048.55 136.119 1051.878 132.679 1055.207 129.462 1058.536 126.721 1061.865 124.578 1065.193 123.032 1068.522 122.018 1071.851 121.475 1075.18 121.4 1078.508 121.854 1081.837 122.926 1085.166 124.666 1088.494 127.011 1091.823 129.746 1095.152 132.507 1098.481 134.859 1101.809 136.402 1105.138 136.883 1108.467 136.256 1111.796 134.697 1115.124 132.539 1118.453 130.184 1121.782 128.006 1125.111 126.279 1128.439 125.139 1131.768 124.592 1135.097 124.557 1138.425 124.926 1141.754 125.624 1145.083 126.658 1148.412 128.122 1151.74 130.164 1155.069 132.925 1158.398 136.471 1161.727 140.767 1165.055 145.697 1168.384 151.128 1171.713 156.979 1175.041 163.247 1178.37 169.97 1181.699 177.139 1185.028 184.609 1188.356 192.072 1191.685 199.105 1195.014 205.263 1198.343 210.171 1201.671 213.565 1205 215.294 1205 277.843 3.329 277.843"></polygon>
                </g>
                <g id="Group" transform="translate(184.000000, 3.000000)" fill="#000000" fill-rule="nonzero">
                    <g id="JAN">
                        <use xlink:href="#path-1"></use>
                        <use xlink:href="#path-1"></use>
                    </g>
                    <g id="FEB">
                        <use xlink:href="#path-2"></use>
                        <use xlink:href="#path-2"></use>
                    </g>
                    <g id="MAR">
                        <use xlink:href="#path-3"></use>
                        <use xlink:href="#path-3"></use>
                    </g>
                    <g id="MAY">
                        <use xlink:href="#path-4"></use>
                        <use xlink:href="#path-4"></use>
                    </g>
                    <g transform="translate(113.500000, 429.000000) rotate(90.000000) translate(-113.500000, -429.000000) translate(66.000000, 419.000000)" id="LOCKDOWN">
                        <use xlink:href="#path-5"></use>
                        <use xlink:href="#path-5"></use>
                    </g>
                    <g id="JUN">
                        <use xlink:href="#path-6"></use>
                        <use xlink:href="#path-6"></use>
                    </g>
                    <g id="JUL">
                        <use xlink:href="#path-7"></use>
                        <use xlink:href="#path-7"></use>
                    </g>
                    <g id="AUG">
                        <use xlink:href="#path-8"></use>
                        <use xlink:href="#path-8"></use>
                    </g>
                    <g id="SEP">
                        <use xlink:href="#path-9"></use>
                        <use xlink:href="#path-9"></use>
                    </g>
                    <g id="OCT">
                        <use xlink:href="#path-10"></use>
                        <use xlink:href="#path-10"></use>
                    </g>
                    <g id="NOV">
                        <use xlink:href="#path-11"></use>
                        <use xlink:href="#path-11"></use>
                    </g>
                    <g id="DEC">
                        <use xlink:href="#path-12"></use>
                        <use xlink:href="#path-12"></use>
                    </g>
                </g>
                <path d="M192.449,292 L293.16,292 C303.307,292 305.705,295.272 305.705,303.17 L305.705,323.472 C305.705,331.372 303.403,334.642005 293.16,334.642005 L192.456,334.642005 C182.227,334.647 179.904,331 179.904,323.472 L179.904,317.253 L170.5,313.5 L179.904,308.635 L179.904,303.17 C179.904,296 182.725,292 192.449,292 Z" id="Path" stroke="#000000" fill="#FFE229" fill-rule="nonzero" stroke-linejoin="round"></path>
                <g id="988Messages" fill-rule="nonzero" fill="#000000">
                    <use xlink:href="#path-13"></use>
                    <use xlink:href="#path-13"></use>
                </g>
                <g id="2020" fill-rule="nonzero">
                    <use fill="#000000" xlink:href="#path-14"></use>
                    <use fill="#FFFFFF" xlink:href="#path-14"></use>
                </g>
                <g id="2019" fill-rule="nonzero">
                    <use fill="#000000" xlink:href="#path-15"></use>
                    <use fill="#FFFFFF" xlink:href="#path-15"></use>
                </g>
            </g>
        </g>
    </g>
</svg>