<?xml version="1.0" encoding="UTF-8"?>
<svg width="100px" height="100px" viewBox="0 0 100 100" version="1.1" xmlns="http://www.w3.org/2000/svg" xmlns:xlink="http://www.w3.org/1999/xlink">
    <title>Play</title>
    <g id="designs" stroke="none" stroke-width="1" fill="none" fill-rule="evenodd">
        <g id="ui-kit" transform="translate(-538.000000, -3574.000000)">
            <g id="Group-3" transform="translate(538.000000, 3574.000000)">
                <circle id="Oval" fill="#FFFFFF" cx="50" cy="50" r="50"></circle>
                <path d="M35.8442843,57 L35.844,52.577 L38.3499661,52.5767045 C39.2476934,52.5767045 40.0191581,52.4293981 40.6643601,52.1347854 L40.9003923,52.0174006 C41.5907332,51.6445312 42.1127502,51.1321023 42.4664434,50.4801136 C42.8201366,49.828125 42.9969832,49.0823864 42.9969832,48.2428977 C42.9969832,47.4119318 42.8212019,46.6693892 42.4696394,46.0152699 C42.1180769,45.3611506 41.6003212,44.8465909 40.9163724,44.4715909 C40.2324235,44.0965909 39.3876082,43.9090909 38.3819264,43.9090909 L38.3819264,43.9090909 L33.4728355,43.9090909 L33.4728355,57 L35.8442843,57 Z M35.8442843,45.890625 L38.0175798,45.890625 C38.6099093,45.890625 39.0946394,45.9897017 39.4717701,46.1878551 C39.8489008,46.3860085 40.1280201,46.6619318 40.3091281,47.015625 C40.490236,47.3693182 40.58079,47.7784091 40.58079,48.2428977 C40.58079,48.7073864 40.490236,49.118608 40.3091281,49.4765625 C40.1280201,49.834517 39.8499661,50.115767 39.4749661,50.3203125 C39.0999661,50.524858 38.618432,50.6271307 38.0303639,50.6271307 L38.0303639,50.6271307 L35.844,50.628 L35.8442843,45.890625 Z M47.2668789,57 L47.2668789,43.9090909 L44.9529585,43.9090909 L44.9529585,57 L47.2668789,57 Z M52.4674727,57.1981534 C52.9788363,57.1981534 53.4252142,57.1267756 53.8066062,56.9840199 C54.1879983,56.8412642 54.5054698,56.6516335 54.759021,56.4151278 C55.0125721,56.1786222 55.2096602,55.9240057 55.3502852,55.6512784 L55.3502852,55.6512784 L55.4269897,55.6512784 L55.4269897,57 L57.6514215,57 L57.6514215,50.4289773 C57.6514215,49.7769886 57.5331687,49.2336648 57.296663,48.7990057 C57.0601573,48.3643466 56.7480125,48.0202415 56.3602284,47.7666903 C55.9724443,47.5131392 55.5441772,47.3309659 55.0754272,47.2201705 C54.6066772,47.109375 54.1357965,47.0539773 53.6627852,47.0539773 C52.9767056,47.0539773 52.3502852,47.1551847 51.7835238,47.3575994 C51.2167625,47.5600142 50.737359,47.862571 50.3453136,48.2652699 C49.9532681,48.6679688 49.6720181,49.1676136 49.5015636,49.7642045 L49.5015636,49.7642045 L51.662075,50.0710227 C51.7771318,49.734375 51.999788,49.4424716 52.3300437,49.1953125 C52.6602994,48.9481534 53.1088079,48.8245739 53.6755693,48.8245739 C54.2125011,48.8245739 54.6237227,48.9566761 54.909234,49.2208807 C55.1947454,49.4850852 55.3375011,49.8579545 55.3375011,50.3394886 L55.3375011,50.3394886 L55.3375011,50.3778409 C55.3375011,50.5994318 55.2554698,50.762429 55.0914073,50.8668324 C54.9273448,50.9712358 54.6663363,51.0479403 54.3083818,51.096946 C53.9504272,51.1459517 53.4838079,51.2002841 52.9085238,51.2599432 C52.4312511,51.3110795 51.9699585,51.3931108 51.524646,51.5060369 C51.0793335,51.6189631 50.6798306,51.7840909 50.3261375,52.0014205 C49.9724443,52.21875 49.693325,52.5085227 49.4887795,52.8707386 C49.284234,53.2329545 49.1819613,53.6910511 49.1819613,54.2450284 C49.1819613,54.8884943 49.3257823,55.4296875 49.6134244,55.868608 C49.9010664,56.3075284 50.2931119,56.6388494 50.7895608,56.862571 C51.2860096,57.0862926 51.8453136,57.1981534 52.4674727,57.1981534 Z M53.068325,55.4978693 C52.5867909,55.4978693 52.190484,55.3892045 51.8794045,55.171875 C51.568325,54.9545455 51.4127852,54.6328125 51.4127852,54.2066761 C51.4127852,53.9083807 51.4916204,53.6644176 51.6492909,53.4747869 C51.8069613,53.2851562 52.0221602,53.1370739 52.2948875,53.0305398 C52.5676147,52.9240057 52.8765636,52.8473011 53.221734,52.8004261 C53.3751431,52.7791193 53.5562511,52.7535511 53.7650579,52.7237216 C53.9738647,52.693892 54.1848022,52.6598011 54.3978704,52.6214489 C54.6109386,52.5830966 54.8037653,52.5383523 54.9763505,52.4872159 C55.1489358,52.4360795 55.27145,52.3806818 55.3438931,52.3210227 L55.3438931,52.3210227 L55.3438931,53.477983 C55.3438931,53.8401989 55.2512085,54.1747159 55.0658392,54.4815341 C54.8804698,54.7883523 54.6173306,55.034446 54.2764215,55.2198153 C53.9355125,55.4051847 53.5328136,55.4978693 53.068325,55.4978693 Z M61.0673425,60.662642 C61.6724561,60.662642 62.1934078,60.5635653 62.6301976,60.3654119 C63.0669874,60.1672585 63.4366607,59.8828125 63.7392175,59.5120739 C64.0417743,59.1413352 64.284672,58.7002841 64.4679107,58.1889205 L64.4679107,58.1889205 L68.4118027,47.1946023 L65.9380811,47.1818182 L63.668905,54.5965909 L63.5666323,54.5965909 L61.3038482,47.1818182 L58.8493027,47.1818182 L62.409672,57.2045455 L62.2115186,57.7350852 C61.9899277,58.2762784 61.7076124,58.5948153 61.3645726,58.690696 C61.0215328,58.7865767 60.5985925,58.7620739 60.0957516,58.6171875 L60.0957516,58.6171875 L59.5588198,60.4133523 C59.7164902,60.4815341 59.9284931,60.5401278 60.1948283,60.5891335 C60.4611635,60.6381392 60.7520016,60.662642 61.0673425,60.662642 Z" id="Play" fill="#000000" fill-rule="nonzero"></path>
            </g>
        </g>
    </g>
</svg>